<?xml version="1.0" standalone="no"?>
<!DOCTYPE svg PUBLIC "-//W3C//DTD SVG 20010904//EN"
 "http://www.w3.org/TR/2001/REC-SVG-20010904/DTD/svg10.dtd">
<svg version="1.0" xmlns="http://www.w3.org/2000/svg"
 width="832.000000pt" height="1280.000000pt" viewBox="0 0 832.000000 1280.000000"
 preserveAspectRatio="xMidYMid meet">
<metadata>
Created by potrace 1.15, written by Peter Selinger 2001-2017
</metadata>
<g transform="translate(0.000000,1280.000000) scale(0.100000,-0.100000)"
fill="#000000" stroke="none">
<path d="M7746 12785 c-47 -17 -83 -42 -109 -77 -19 -26 -19 -26 3 -93 17 -51
20 -72 12 -89 -13 -29 -96 -84 -136 -91 -79 -12 -462 -25 -1021 -35 -335 -6
-783 -16 -995 -22 -506 -14 -4188 -22 -4512 -10 -246 10 -248 10 -278 36 -18
14 -39 26 -48 26 -9 0 -36 13 -60 29 -23 16 -60 32 -82 36 -43 7 -90 38 -78
51 5 4 40 1 79 -6 62 -12 75 -12 98 1 38 21 38 56 -1 114 -38 57 -89 95 -128
95 -42 0 -91 -40 -124 -101 -29 -54 -30 -57 -16 -99 15 -47 20 -33 -54 -163
-27 -45 -28 -52 -25 -170 5 -184 4 -269 -1 -302 l-5 -30 130 -1 130 -2 -95 12
-95 11 -12 145 c-20 226 -5 298 63 320 34 12 217 10 229 -2 3 -2 8 -105 13
-227 10 -247 8 -241 79 -241 55 0 63 15 63 127 0 109 5 128 37 142 28 13 59 7
86 -17 15 -13 16 -26 11 -96 -8 -96 -13 -107 -53 -121 -17 -5 -31 -14 -31 -20
-2 -17 41 -23 195 -25 83 -1 173 -5 200 -9 l50 -7 -40 -9 c-22 -5 -254 -10
-515 -10 -437 0 -478 1 -503 18 -14 9 -33 17 -42 17 -25 0 -115 -90 -141 -142
-38 -75 -31 -103 51 -199 60 -70 72 -93 90 -181 9 -40 28 -95 42 -123 27 -49
28 -55 33 -260 5 -200 6 -211 28 -241 16 -21 26 -54 32 -100 5 -38 14 -733 20
-1544 5 -811 15 -2094 20 -2850 5 -756 13 -2195 17 -3197 l6 -1821 -97 -131
c-95 -126 -97 -131 -92 -173 3 -24 11 -241 17 -483 7 -242 13 -441 14 -443 1
-1 157 2 346 8 189 5 682 19 1094 30 413 11 795 23 849 27 212 13 40 23 -512
28 -520 5 -759 12 -750 20 2 2 66 11 143 20 183 22 690 31 845 16 63 -6 187
-14 275 -17 116 -5 167 -11 187 -22 24 -14 32 -14 80 1 71 21 157 30 205 21
l38 -7 -35 -13 c-34 -13 -33 -13 30 -9 36 2 101 8 145 13 44 6 432 12 862 16
570 4 832 10 965 21 101 8 244 19 318 24 90 7 -303 9 -1180 6 -723 -1 -1373 0
-1445 4 -116 7 -101 8 135 10 1008 7 2222 22 2530 31 1087 30 2087 46 1970 31
-36 -5 -173 -12 -305 -15 -607 -17 -849 -31 -838 -49 4 -6 277 -8 780 -6 l774
4 32 -60 32 -60 186 -3 c102 -1 203 1 225 6 34 7 39 12 36 33 -1 13 -6 211
-11 439 -9 459 -11 472 -75 555 -69 91 -65 9 -76 1474 -5 729 -15 2255 -20
3391 -11 2066 -23 2986 -39 3070 -7 33 -19 53 -47 78 -42 36 -56 39 -75 15
-11 -13 -14 -74 -13 -307 2 -299 21 -1168 29 -1266 2 -30 7 -247 11 -481 5
-319 4 -428 -4 -433 -20 -12 -14 -103 11 -154 21 -45 22 -57 21 -312 0 -218
-3 -276 -17 -330 -15 -56 -19 -152 -28 -675 -14 -767 -2 -1472 24 -1487 23
-12 21 -35 -3 -50 -31 -19 -27 -84 6 -119 28 -29 25 -49 -6 -49 -10 0 -20 -6
-23 -13 -8 -21 8 -38 27 -31 14 5 16 2 10 -21 -4 -15 -1 -36 6 -49 17 -32 9
-60 -18 -64 -20 -3 -22 -9 -22 -64 0 -50 2 -59 14 -49 18 15 26 -13 26 -89 0
-71 -8 -100 -26 -93 -11 4 -14 -10 -13 -73 l2 -79 10 48 c6 26 14 47 18 47 15
0 24 -166 24 -465 0 -285 -1 -312 -19 -337 -16 -24 -18 -44 -15 -145 4 -103 7
-123 28 -158 16 -28 25 -61 29 -107 6 -81 -1 -84 -72 -33 -55 39 -98 45 -145
20 -59 -30 -103 -110 -71 -130 6 -4 29 9 50 29 34 31 47 36 88 36 30 0 60 -8
82 -21 41 -25 90 -69 90 -81 0 -5 -62 -8 -138 -7 -141 2 -162 -1 -162 -27 0
-25 47 -34 176 -34 l124 0 0 -120 0 -120 -124 0 c-151 0 -157 2 -143 39 14 37
3 74 -32 110 -66 68 -66 272 0 441 49 125 52 174 45 640 -8 519 -12 575 -40
602 -18 17 -21 33 -24 131 -3 86 0 122 13 157 28 77 38 624 25 1435 -10 695
-21 982 -40 1040 -43 131 -36 553 10 687 38 109 43 221 36 808 -3 305 -9 661
-12 791 -7 230 -7 235 -28 235 -17 -1 -22 7 -28 49 -8 47 -2 162 9 192 12 32
23 8 24 -54 1 -111 15 -119 22 -14 10 135 8 624 -2 704 -6 46 -18 80 -35 105
-26 39 -31 66 -28 178 3 104 11 111 145 129 59 8 113 17 120 22 23 14 -57 22
-159 16 l-101 -6 -8 341 c-4 188 -4 346 0 353 21 33 29 -42 33 -301 4 -270 11
-335 33 -313 8 8 10 104 8 305 l-4 293 -28 55 c-27 54 -28 58 -25 210 l3 155
110 0 c131 0 158 -6 173 -40 13 -29 16 -114 4 -131 -15 -23 -53 -34 -147 -42
-88 -9 -128 -22 -112 -38 3 -4 56 -9 116 -12 67 -3 115 -10 121 -17 5 -6 12
-37 16 -68 8 -66 -4 -87 -47 -87 -41 0 -36 -15 9 -26 l37 -9 6 -155 c4 -85 7
-239 8 -341 l1 -186 -112 -6 c-62 -3 -123 -9 -136 -13 -47 -14 -14 -29 77 -36
51 -3 95 -9 98 -12 3 -3 3 -12 0 -20 -9 -24 -73 -31 -117 -13 -21 8 -41 12
-44 9 -12 -12 -5 -34 19 -57 35 -36 77 -33 141 11 29 20 57 33 63 30 15 -10
13 -106 -2 -133 -7 -12 -24 -31 -39 -43 -43 -33 -37 -64 17 -95 24 -15 47 -36
51 -48 11 -36 26 -50 35 -35 18 28 5 1368 -16 1668 l-6 86 43 54 43 54 -3 132
c-3 108 0 138 13 164 9 18 21 75 26 126 10 106 16 124 59 154 17 12 39 39 50
60 11 21 39 51 62 67 59 40 56 68 -16 177 -65 98 -79 105 -189 98 l-77 -5 0
159 c-1 88 -5 190 -10 228 -8 63 -12 72 -54 115 -25 26 -46 51 -46 56 0 5 11
21 25 35 36 38 42 87 17 144 -30 66 -87 83 -176 51z m111 -71 c7 -19 -52 -82
-84 -90 -32 -8 -29 -21 10 -44 32 -20 32 -20 6 -20 -77 0 -132 125 -69 157 37
19 129 17 137 -3z m-7337 -35 l33 -12 -24 -13 c-14 -7 -26 -24 -29 -41 -6 -31
-40 -43 -66 -23 -22 19 -17 66 8 84 27 19 35 19 78 5z m7350 -199 c27 -17 -2
-25 -92 -25 -61 0 -93 4 -95 12 -2 6 4 13 14 16 33 9 158 7 173 -3z m-7338
-21 c31 -17 5 -29 -64 -29 -57 0 -83 14 -57 31 20 12 96 11 121 -2z m7388
-231 c0 -90 -3 -173 -7 -186 -8 -33 -42 -43 -164 -49 -120 -7 -179 1 -179 22
0 11 13 15 50 15 l50 0 -5 153 c-3 83 -8 164 -10 180 l-4 27 134 0 135 0 0
-162z m-352 140 c17 -17 15 -35 -5 -43 -10 -4 -373 -11 -808 -15 -434 -5
-1166 -14 -1625 -21 -459 -7 -857 -9 -885 -4 l-50 8 35 9 c19 4 359 12 755 18
755 10 1363 24 1925 45 467 17 643 18 658 3z m-4110 -64 c101 -4 142 -10 139
-18 -7 -21 -163 -25 -1342 -35 -652 -5 -1240 -15 -1315 -21 -237 -19 -226 -19
-222 13 2 19 -1 27 -12 27 -17 0 -31 18 -21 28 16 16 2394 21 2773 6z m702 -4
c31 -17 -47 -25 -240 -25 -185 0 -261 7 -245 23 19 19 449 21 485 2z m3210
-60 c0 -5 -7 -10 -16 -10 -8 0 -12 5 -9 10 3 6 10 10 16 10 5 0 9 -4 9 -10z
m134 -12 c12 -17 16 -50 16 -139 0 -101 2 -118 18 -125 9 -5 116 -9 237 -9
121 -1 228 -5 238 -9 9 -5 20 -19 23 -32 4 -15 13 -24 25 -24 23 0 23 -1 5
-45 -10 -24 -22 -35 -35 -35 -25 0 -27 9 -4 25 21 16 10 33 -30 43 -20 5 -33
15 -35 28 -3 19 -15 19 -611 16 -617 -2 -847 9 -440 22 207 6 541 25 547 30 1
2 -5 22 -13 46 -8 23 -15 60 -15 81 0 21 -4 41 -10 44 -19 12 -10 47 19 76 35
35 45 36 65 7z m-2199 -8 c4 -6 -6 -10 -22 -10 -22 0 -25 2 -13 10 19 12 27
12 35 0z m685 0 c0 -5 -5 -10 -11 -10 -5 0 -7 5 -4 10 3 6 8 10 11 10 2 0 4
-4 4 -10z m252 -2 c17 -13 36 -85 45 -169 7 -69 -9 -80 -110 -77 -73 3 -82 5
-99 29 -27 36 -37 169 -15 188 41 33 150 51 179 29z m113 2 c4 -6 -6 -10 -22
-9 -25 0 -26 1 -8 9 11 5 21 9 22 9 1 1 5 -3 8 -9z m223 4 c29 -6 31 -8 30
-55 0 -53 22 -99 48 -99 30 0 -5 -38 -59 -64 -73 -36 -145 -44 -174 -20 -31
27 -34 58 -6 62 12 2 27 10 33 17 10 12 5 19 -25 36 -33 20 -36 25 -31 52 7
36 23 56 51 67 24 11 91 12 133 4z m349 -28 c24 -28 25 -35 21 -109 -3 -53 -9
-82 -19 -88 -25 -16 -145 -10 -184 8 -34 16 -36 19 -30 53 4 19 7 66 6 104
l-1 68 91 -3 c86 -4 92 -5 116 -33z m98 24 c3 -5 1 -10 -4 -10 -6 0 -11 5 -11
10 0 6 2 10 4 10 3 0 8 -4 11 -10z m256 -11 c9 -5 19 -27 23 -49 3 -22 15 -49
26 -60 22 -22 26 -40 10 -40 -6 0 -16 -12 -23 -27 -6 -16 -16 -31 -22 -35 -16
-12 -141 -9 -169 3 -30 14 -50 60 -42 95 5 20 1 33 -14 49 -20 21 -20 23 -3
44 10 13 34 26 53 30 39 9 136 3 161 -10z m-3801 -12 c0 -26 -25 -37 -85 -37
-74 0 -98 -15 -98 -59 0 -51 20 -64 78 -51 79 18 135 -11 135 -70 0 -59 -196
-51 -264 11 -22 20 -27 31 -19 37 6 4 13 34 15 67 3 54 6 61 33 76 17 10 59
22 95 27 94 14 110 14 110 -1z m388 7 c27 -5 30 -9 22 -25 -13 -24 -13 -126 0
-134 14 -9 3 -45 -23 -72 -18 -21 -30 -23 -111 -23 -87 1 -90 1 -58 15 40 18
41 39 1 55 -29 12 -33 11 -48 -9 -12 -15 -26 -22 -41 -19 -32 4 -36 22 -10 46
18 17 19 20 5 32 -33 27 -9 77 53 109 13 7 51 16 85 20 86 12 91 12 125 5z
m967 -3 c17 -4 35 -16 42 -31 7 -14 20 -31 30 -38 17 -12 16 -15 -9 -37 -29
-25 -113 -44 -128 -29 -5 5 -10 23 -12 39 -2 22 -9 31 -25 33 -21 3 -23 0 -23
-47 0 -62 -35 -144 -59 -139 -36 7 -68 151 -40 184 7 9 18 26 24 38 12 24 47
34 120 34 28 0 63 -3 80 -7z m235 -47 c0 -19 4 -34 8 -34 4 0 26 18 47 40 52
53 90 55 111 5 7 -19 14 -48 14 -64 0 -16 7 -37 16 -46 18 -18 14 -79 -6 -99
-17 -17 -204 -10 -240 9 -33 17 -49 58 -31 79 8 10 8 21 1 40 -16 44 -12 66
20 98 25 25 33 28 45 18 8 -7 15 -28 15 -46z m500 29 c21 -27 45 -133 36 -166
-3 -15 -19 -31 -39 -40 -40 -20 -162 -40 -188 -32 -24 8 -25 56 -2 96 20 33
12 57 -25 74 -27 12 -28 26 -4 55 22 28 71 40 146 36 46 -2 63 -7 76 -23z
m360 -27 c14 -29 26 -74 28 -108 4 -56 3 -58 -24 -69 -16 -6 -83 -13 -148 -16
l-119 -6 7 24 c4 13 10 68 13 121 5 78 9 98 22 102 9 2 57 3 106 3 l90 -2 25
-49z m-2367 37 c-7 -2 -19 -2 -25 0 -7 3 -2 5 12 5 14 0 19 -2 13 -5z m577 -6
c49 -13 70 -40 70 -93 0 -39 18 -54 70 -61 46 -6 51 4 24 61 -34 71 2 106 110
106 89 0 95 -7 107 -123 13 -113 9 -122 -53 -132 -70 -12 -142 3 -177 36 -42
40 -73 38 -97 -6 -15 -26 -61 -36 -152 -33 l-77 3 -3 101 c-2 89 0 103 18 127
18 23 29 27 68 26 26 0 67 -6 92 -12z m-2624 -29 c21 -21 41 -172 26 -191 -15
-17 -107 -37 -173 -37 -56 0 -54 -3 -63 118 -7 79 2 107 37 123 32 13 156 4
173 -13z m887 8 c18 -7 41 -23 51 -35 17 -18 18 -24 6 -46 -11 -21 -10 -28 4
-50 20 -31 14 -60 -17 -77 -29 -16 -192 -15 -240 1 -33 11 -42 10 -80 -8 -58
-28 -148 -32 -174 -8 -28 24 -84 21 -139 -8 -53 -28 -129 -33 -160 -11 -16 12
-19 29 -22 125 l-4 111 116 0 c107 0 149 -9 110 -24 -13 -5 -16 -17 -12 -57 5
-50 18 -69 48 -69 31 0 44 20 51 80 4 35 13 66 21 71 7 5 52 9 101 9 l87 0 0
-54 c0 -70 14 -106 40 -106 23 0 36 36 26 75 -9 36 3 75 28 85 33 14 123 11
159 -4z m225 -21 c-2 -66 67 -109 106 -66 26 29 11 51 -36 51 -35 0 -39 2 -36
23 3 20 9 22 63 25 33 1 66 -2 74 -7 9 -6 16 -33 19 -70 2 -34 10 -65 18 -72
40 -33 -2 -76 -83 -86 -60 -7 -72 5 -38 37 14 13 25 27 25 32 0 18 -26 6 -60
-26 -42 -42 -78 -52 -105 -32 -17 12 -20 25 -19 98 0 95 13 128 49 128 21 0
24 -4 23 -35z m500 28 c23 -6 24 -8 20 -100 -2 -78 -6 -97 -21 -108 -27 -20
-109 -28 -155 -16 -34 10 -43 17 -53 48 -14 44 -5 163 13 175 15 9 163 11 196
1z m-1909 -100 c0 -105 -15 -168 -39 -168 -8 0 -26 23 -39 50 l-24 50 -18 -41
c-22 -54 -36 -61 -62 -35 -24 23 -34 117 -23 196 l7 45 100 0 99 0 -1 -97z
m2176 34 c0 -15 -4 -28 -9 -29 -14 -5 -30 28 -23 46 10 26 32 14 32 -17z m110
3 c3 -5 -1 -10 -9 -10 -9 0 -16 5 -16 10 0 6 4 10 9 10 6 0 13 -4 16 -10z
m1393 -99 c20 -12 5 -58 -21 -65 -28 -7 -96 -7 -124 0 -25 7 -36 29 -28 55 6
16 17 19 83 19 42 0 83 -4 90 -9z m3251 -77 c11 -14 23 -35 27 -47 3 -12 18
-34 32 -49 30 -33 26 -43 -12 -28 -15 5 -40 10 -56 10 l-29 0 17 30 c16 27 16
31 -1 59 -31 53 -15 72 22 25z m-1833 -29 c8 -20 -13 -45 -38 -45 -27 0 -35
30 -13 46 25 18 44 18 51 -1z m69 5 c3 -5 -3 -10 -15 -10 -12 0 -18 5 -15 10
3 6 10 10 15 10 5 0 12 -4 15 -10z m150 0 c4 -6 -8 -10 -29 -10 -20 0 -36 5
-36 10 0 6 13 10 29 10 17 0 33 -4 36 -10z m-1575 -25 c14 -13 26 -14 61 -6
26 6 208 11 433 11 l389 0 -26 -24 c-14 -13 -29 -36 -33 -50 -7 -31 -24 -25
-24 8 0 13 -6 28 -12 34 -20 16 -84 25 -133 17 -42 -6 -47 -10 -68 -53 -19
-40 -27 -47 -54 -50 -40 -4 -41 1 -8 40 14 17 24 38 23 47 -5 23 -47 16 -78
-14 -33 -31 -44 -31 -64 0 -19 29 -44 32 -88 9 -29 -15 -34 -15 -61 1 -19 11
-32 14 -39 7 -15 -15 7 -49 45 -69 31 -17 31 -18 8 -21 -36 -6 -71 7 -71 25 0
14 -2 14 -19 -1 -34 -31 -379 -49 -430 -23 -15 7 -28 26 -33 45 -11 43 -34 41
-45 -5 -10 -41 -40 -55 -35 -16 3 25 -23 43 -62 43 -23 0 -25 -4 -24 -35 1
-33 -23 -75 -44 -75 -4 0 -8 18 -8 40 0 36 -3 41 -34 54 -39 16 -54 35 -36 46
16 10 369 24 378 15 4 -3 0 -12 -8 -18 -34 -26 -43 -46 -30 -62 31 -37 110 -5
110 45 0 27 15 48 26 37 2 -2 8 -24 12 -48 6 -35 12 -45 30 -47 26 -4 27 1 5
39 -16 27 -16 29 2 49 22 24 24 24 45 5z m1005 6 c3 -5 -5 -17 -17 -25 -26
-18 -38 -5 -18 19 14 17 26 19 35 6z m-2505 -10 l85 -6 -90 -8 c-247 -19
-1411 -19 -1391 0 15 15 1230 27 1396 14z m469 0 c15 -10 -3 -14 -99 -25 -57
-6 -174 4 -163 15 17 16 239 25 262 10z m2102 -20 c-14 -16 -28 -27 -30 -25
-7 7 30 54 43 54 9 0 4 -11 -13 -29z m-4116 9 c-4 -6 -106 -9 -278 -8 -150 0
-252 4 -227 8 74 11 512 11 505 0z m5045 0 c0 -5 -5 -10 -11 -10 -5 0 -7 5 -4
10 3 6 8 10 11 10 2 0 4 -4 4 -10z m257 -16 c19 -26 6 -34 -27 -17 -42 20
-104 9 -125 -23 -13 -20 -23 -24 -63 -23 l-47 1 33 14 c18 8 37 25 42 38 10
28 40 36 120 31 37 -3 59 -10 67 -21z m112 -25 c-5 -11 -14 -19 -19 -19 -16 0
-22 40 -9 56 12 14 14 14 26 -1 8 -13 9 -23 2 -36z m101 -11 c0 -23 -4 -29
-17 -26 -21 4 -39 49 -29 73 6 17 7 17 26 0 11 -10 20 -31 20 -47z m88 50 c7
-7 12 -23 12 -37 l0 -25 -30 29 c-29 27 -31 45 -6 45 6 0 17 -5 24 -12z m90 0
c16 -16 -3 -48 -28 -48 -35 0 -25 54 11 59 3 1 10 -4 17 -11z m260 3 c20 -12
10 -46 -15 -49 -26 -4 -43 35 -22 49 17 11 21 11 37 0z m-3558 -9 c0 -4 -5
-13 -12 -20 -9 -9 -8 -16 5 -30 15 -17 16 -21 3 -31 -24 -20 -59 -9 -66 19 -8
34 -33 31 -44 -5 l-9 -30 -33 32 c-37 35 -88 51 -108 34 -7 -6 -24 -10 -37 -9
-18 2 -26 -4 -34 -28 -12 -38 -31 -39 -28 -1 1 32 18 56 48 67 26 11 315 13
315 2z m2429 -16 c25 -23 28 -56 4 -56 -21 0 -53 29 -54 49 0 9 -5 1 -10 -17
-11 -39 -40 -41 -49 -4 -3 13 -16 30 -30 38 -23 14 -20 14 47 12 53 -3 77 -8
92 -22z m1048 -13 c-3 -10 -5 -4 -5 12 0 17 2 24 5 18 2 -7 2 -21 0 -30z
m-879 3 c6 -27 -18 -46 -56 -46 -38 0 -72 23 -72 50 0 24 123 21 128 -4z
m-1288 -49 c0 -12 -6 -17 -17 -15 -13 2 -19 14 -21 43 l-2 40 20 -25 c11 -14
20 -33 20 -43z m772 46 c28 -25 22 -33 -27 -33 -49 0 -53 4 -28 32 20 22 31
23 55 1z m1313 -3 c0 -8 -8 -16 -17 -18 -13 -2 -18 3 -18 18 0 15 5 20 18 18
9 -2 17 -10 17 -18z m-1608 -27 c-3 -10 -5 -4 -5 12 0 17 2 24 5 18 2 -7 2
-21 0 -30z m93 17 c0 -11 -4 -20 -10 -20 -5 0 -10 9 -10 20 0 11 5 20 10 20 6
0 10 -9 10 -20z m330 0 c0 -11 -4 -20 -10 -20 -5 0 -10 9 -10 20 0 11 5 20 10
20 6 0 10 -9 10 -20z m-1170 -37 c0 -7 -7 -13 -15 -13 -10 0 -15 10 -15 33 1
30 1 31 15 13 8 -11 15 -26 15 -33z m-5192 15 c-15 -22 -68 -38 -68 -21 0 11
51 42 69 43 11 0 11 -4 -1 -22z m5717 12 c10 -16 -16 -43 -28 -31 -11 11 -2
41 12 41 5 0 13 -5 16 -10z m-5097 -12 c12 -12 17 -68 7 -68 -3 0 -17 7 -30
16 -29 19 -45 11 -45 -22 0 -30 31 -44 101 -44 49 0 58 7 38 27 -6 6 -9 28 -7
49 4 49 29 53 39 6 4 -18 9 -35 12 -39 12 -11 27 10 27 37 0 37 23 50 90 50
56 0 90 -13 90 -35 0 -24 -19 -27 -64 -10 -46 18 -87 17 -93 -1 -4 -13 19 -39
39 -47 19 -7 -28 -54 -67 -67 -18 -6 -176 -15 -351 -19 -321 -9 -404 -19 -360
-43 12 -7 80 -8 200 -4 104 4 187 3 194 -2 22 -15 10 -55 -18 -63 -14 -4 -99
-7 -190 -8 -180 -1 -180 -1 -248 62 -35 34 -42 71 -15 85 10 5 87 12 172 15
85 4 159 11 164 16 11 11 -28 71 -46 71 -7 0 -18 -14 -24 -31 -8 -21 -17 -30
-30 -27 -25 5 -27 31 -4 59 18 23 26 24 150 28 l132 3 -7 -41 c-5 -34 -4 -41
10 -41 8 0 25 18 36 39 28 56 70 77 98 49z m1340 0 c27 -27 0 -88 -39 -88 -10
0 -39 18 -64 40 -25 22 -51 40 -56 40 -22 0 -47 -21 -59 -49 -22 -55 -82 -52
-106 4 -11 27 -21 35 -49 41 -57 10 -83 -1 -87 -38 -4 -45 -25 -47 -34 -3 l-6
36 -19 -31 c-20 -32 -54 -50 -95 -50 -33 0 -30 12 6 28 17 8 37 27 45 42 8 16
20 30 27 33 7 3 128 6 269 6 186 1 258 -2 267 -11z m72 2 c0 -5 -7 -10 -15
-10 -8 0 -15 5 -15 10 0 6 7 10 15 10 8 0 15 -4 15 -10z m90 -31 c0 -25 -6
-33 -35 -45 -67 -27 -72 -13 -19 46 40 44 54 44 54 -1z m50 31 c0 -5 -4 -10
-10 -10 -5 0 -10 5 -10 10 0 6 5 10 10 10 6 0 10 -4 10 -10z m120 0 c0 -5 -9
-10 -20 -10 -11 0 -20 5 -20 10 0 6 9 10 20 10 11 0 20 -4 20 -10z m128 -2
c18 -18 14 -53 -8 -73 -17 -15 -24 -16 -45 -7 -34 16 -52 56 -35 77 15 18 71
20 88 3z m82 2 c0 -5 -4 -10 -10 -10 -5 0 -10 5 -10 10 0 6 5 10 10 10 6 0 10
-4 10 -10z m80 -5 c0 -8 7 -15 15 -15 8 0 15 7 15 15 0 23 13 18 46 -16 33
-34 38 -34 131 5 59 25 64 26 99 11 46 -19 54 -19 54 0 0 8 7 15 15 15 20 0
20 -44 -1 -64 -24 -24 -79 -20 -97 7 -13 19 -18 20 -34 9 -35 -24 -64 -32
-142 -38 -82 -7 -171 1 -171 16 0 12 50 70 61 70 5 0 9 -7 9 -15z m175 5 c3
-5 -3 -10 -15 -10 -12 0 -18 5 -15 10 3 6 10 10 15 10 5 0 12 -4 15 -10z m382
-17 c19 -25 -11 -53 -57 -53 -40 0 -60 14 -60 42 0 38 91 47 117 11z m83 17
c0 -5 -4 -10 -10 -10 -5 0 -10 5 -10 10 0 6 5 10 10 10 6 0 10 -4 10 -10z m80
-9 c0 -10 -7 -24 -15 -31 -13 -10 -15 -9 -15 12 0 14 3 28 7 31 12 13 23 7 23
-12z m155 9 c3 -5 -1 -10 -9 -10 -9 0 -16 5 -16 10 0 6 4 10 9 10 6 0 13 -4
16 -10z m183 -24 c-4 -31 -38 -34 -38 -3 0 29 7 37 27 30 8 -3 13 -15 11 -27z
m2792 24 c0 -5 -4 -10 -10 -10 -5 0 -10 5 -10 10 0 6 5 10 10 10 6 0 10 -4 10
-10z m1375 0 c3 -5 -3 -10 -15 -10 -12 0 -18 5 -15 10 3 6 10 10 15 10 5 0 12
-4 15 -10z m-6528 -10 c-31 -9 -57 -28 -57 -41 0 -4 7 -15 16 -24 21 -21 12
-30 -15 -15 -12 6 -21 20 -21 30 0 25 -12 25 -27 0 -13 -20 -88 -48 -100 -36
-4 3 3 13 15 22 26 18 29 49 5 63 -13 8 14 10 97 10 79 -1 106 -3 87 -9z
m2273 -10 c0 -11 -7 -23 -15 -27 -21 -8 -28 1 -20 26 8 27 35 27 35 1z m716 9
c3 -6 0 -17 -7 -25 -18 -17 -44 -2 -36 20 7 18 33 21 43 5z m-4131 -9 c3 -5
-3 -10 -13 -10 -11 0 -26 -7 -33 -16 -11 -14 -11 -18 4 -29 9 -6 14 -15 10
-18 -9 -10 -55 -8 -71 2 -17 10 -6 58 17 71 21 13 78 13 86 0z m3293 -10 c38
-23 41 -37 9 -45 -26 -7 -77 9 -77 24 0 5 -3 16 -6 25 -9 23 33 21 74 -4z
m1812 10 c0 -5 -4 -10 -10 -10 -5 0 -10 5 -10 10 0 6 5 10 10 10 6 0 10 -4 10
-10z m285 0 c3 -5 1 -10 -4 -10 -6 0 -11 5 -11 10 0 6 2 10 4 10 3 0 8 -4 11
-10z m260 0 c3 -5 -3 -10 -15 -10 -12 0 -18 5 -15 10 3 6 10 10 15 10 5 0 12
-4 15 -10z m-1905 -15 c0 -8 -4 -15 -10 -15 -5 0 -10 7 -10 15 0 8 5 15 10 15
6 0 10 -7 10 -15z m65 -5 c3 -5 1 -10 -4 -10 -6 0 -11 5 -11 10 0 6 2 10 4 10
3 0 8 -4 11 -10z m240 0 c3 -5 1 -10 -4 -10 -6 0 -11 5 -11 10 0 6 2 10 4 10
3 0 8 -4 11 -10z m2675 0 c24 -16 -6 -30 -63 -30 -53 0 -55 14 -4 29 43 12 49
12 67 1z m-5840 -26 c0 -8 -4 -14 -9 -14 -12 0 -32 26 -25 33 10 9 34 -4 34
-19z m1179 12 c8 -10 9 -16 1 -21 -13 -8 -30 3 -30 21 0 18 14 18 29 0z m1501
-1 c0 -8 -4 -15 -10 -15 -5 0 -10 7 -10 15 0 8 5 15 10 15 6 0 10 -7 10 -15z
m3393 8 c-7 -2 -19 -2 -25 0 -7 3 -2 5 12 5 14 0 19 -2 13 -5z m895 -2 c25
-16 -60 -21 -350 -21 -276 0 -368 7 -288 21 53 10 623 10 638 0z m-6178 -27
c0 -8 -5 -12 -10 -9 -6 4 -8 11 -5 16 9 14 15 11 15 -7z m4680 4 c-30 -12
-398 -24 -387 -12 13 14 101 21 262 22 113 1 144 -2 125 -10z m101 3 c-8 -5
-20 -7 -28 -4 -21 8 -15 13 15 13 20 0 23 -3 13 -9z m379 -1 c0 -5 -7 -10 -15
-10 -8 0 -15 5 -15 10 0 6 7 10 15 10 8 0 15 -4 15 -10z m301 1 c-8 -5 -20 -7
-28 -4 -21 8 -15 13 15 13 20 0 23 -3 13 -9z m-1321 -11 c20 -6 16 -8 -25 -10
-147 -5 -1131 -17 -1134 -14 -14 12 30 17 206 24 275 10 923 10 953 0z m-6000
-15 c0 -16 -27 -32 -37 -21 -7 7 16 36 28 36 5 0 9 -7 9 -15z m1640 5 c0 -5
-7 -10 -15 -10 -8 0 -15 5 -15 10 0 6 7 10 15 10 8 0 15 -4 15 -10z m680 0 c0
-5 -7 -10 -15 -10 -8 0 -15 5 -15 10 0 6 7 10 15 10 8 0 15 -4 15 -10z m2435
-9 c25 -6 20 -8 -34 -14 -84 -9 -325 -9 -387 1 -41 6 -27 8 81 12 190 8 306 9
340 1z m-1762 -7 c9 -9 -4 -34 -18 -34 -14 0 -27 25 -18 34 4 3 12 6 18 6 6 0
14 -3 18 -6z m97 -4 c0 -5 -7 -10 -15 -10 -8 0 -15 5 -15 10 0 6 7 10 15 10 8
0 15 -4 15 -10z m897 -3 c8 -9 -540 -17 -617 -10 l-85 8 90 6 c88 7 605 3 612
-4z m4018 3 c12 -20 -65 -40 -187 -50 -205 -17 -686 -17 -734 -1 -39 13 -43
12 -73 -10 -29 -21 -33 -22 -48 -7 -24 24 -10 43 41 58 38 10 67 10 158 0 113
-13 528 -7 698 10 113 11 138 11 145 0z m-5175 -10 c0 -11 -22 -17 -105 -25
-33 -4 -71 -9 -84 -12 -17 -4 -22 -2 -19 8 7 23 208 51 208 29z m-1485 -18
c37 -11 -53 -21 -195 -21 -146 -1 -240 7 -240 20 0 4 30 10 68 12 84 5 340 -3
367 -11z m504 -2 c28 -15 -27 -22 -182 -21 -84 0 -163 4 -177 9 l-25 10 25 6
c69 16 328 14 359 -4z m648 1 c32 -18 -28 -23 -270 -23 -233 1 -340 11 -257
26 94 16 497 14 527 -3z m3740 3 c13 -4 20 -10 17 -15 -7 -12 -421 -12 -429 0
-5 10 19 16 95 25 46 6 288 -2 317 -10z m481 -6 c-8 -24 -61 -41 -129 -42 -83
-1 -112 17 -53 33 91 23 188 28 182 9z m136 6 c38 -15 3 -54 -48 -54 -34 0
-56 10 -56 26 0 27 63 44 104 28z m-481 -21 c-7 -2 -19 -2 -25 0 -7 3 -2 5 12
5 14 0 19 -2 13 -5z m-1728 -23 c-16 -4 -42 -11 -57 -14 -14 -3 -40 -17 -56
-31 l-29 -24 -22 29 c-18 25 -28 30 -66 30 -36 0 -50 -6 -76 -31 -25 -24 -38
-30 -67 -27 -49 4 -50 30 -2 39 19 3 49 14 65 23 24 13 59 16 185 15 98 0 144
-4 125 -9z m627 3 c-51 -2 -132 -2 -180 0 -48 1 -6 3 93 3 99 0 138 -2 87 -3z
m-1118 -14 c-18 -5 -39 -20 -48 -34 -22 -34 -36 -31 -36 6 l0 32 -92 -6 c-54
-3 -112 -13 -138 -23 -36 -15 -67 -18 -150 -16 -63 2 -120 -2 -143 -9 -32 -11
-39 -10 -50 4 -10 15 -17 15 -44 5 -26 -10 -38 -9 -73 7 -36 16 -47 17 -86 7
-53 -14 -163 -16 -184 -2 -26 16 8 21 211 29 278 11 872 11 833 0z m-1956 -21
c6 -33 -33 -58 -95 -58 -55 0 -56 0 -39 19 17 18 17 20 -2 30 -15 8 -27 4 -56
-16 -31 -23 -50 -27 -123 -31 -72 -4 -88 -2 -98 12 -11 14 -20 15 -56 7 -64
-14 -289 -24 -338 -16 -40 7 -62 27 -46 43 8 8 566 29 735 28 99 -1 115 -3
118 -18z m484 11 c56 -12 93 -27 85 -35 -6 -6 -115 -33 -134 -34 -7 0 -13 7
-13 15 0 21 -35 36 -85 38 -35 2 -48 -3 -69 -26 -30 -32 -55 -34 -78 -8 -9 11
-36 25 -59 32 -33 10 -38 14 -23 20 30 12 318 10 376 -2z m178 -4 c13 -16 6
-35 -15 -35 -16 0 -38 34 -28 44 11 10 30 7 43 -9z m200 0 c0 -41 -131 -60
-154 -22 -16 26 8 37 87 37 52 0 67 -3 67 -15z m3078 8 c-54 -2 -142 -2 -195
0 -54 1 -10 3 97 3 107 0 151 -2 98 -3z m312 -3 c0 -5 -7 -10 -15 -10 -8 0
-15 5 -15 10 0 6 7 10 15 10 8 0 15 -4 15 -10z m-5472 -25 c26 -30 55 -32 82
-5 26 26 111 28 131 4 11 -14 10 -18 -6 -31 -17 -12 -63 -14 -290 -10 -257 4
-315 9 -315 27 0 13 60 30 104 30 23 -1 59 -8 81 -16 70 -27 78 -28 89 -12 32
43 92 50 124 13z m2952 5 c0 -5 -4 -10 -10 -10 -5 0 -10 5 -10 10 0 6 5 10 10
10 6 0 10 -4 10 -10z m906 -2 c18 -19 -15 -28 -97 -28 -90 0 -111 10 -61 29
28 11 146 10 158 -1z m-2281 -38 c3 -5 -1 -10 -10 -10 -9 0 -13 5 -10 10 3 6
8 10 10 10 2 0 7 -4 10 -10z m5378 -5 c9 -4 17 -15 17 -25 0 -13 -11 -19 -42
-24 -24 -3 -367 -11 -763 -16 -396 -6 -868 -15 -1050 -20 -388 -12 -447 -8
-476 28 -11 14 -16 29 -12 33 7 7 684 22 1463 33 331 4 844 -1 863 -9z m-5680
-2 c-7 -2 -19 -2 -25 0 -7 3 -2 5 12 5 14 0 19 -2 13 -5z m3245 -39 c56 -7 64
-17 30 -35 -23 -12 -459 -31 -668 -28 -58 1 -130 2 -160 2 -30 0 -260 -4 -510
-11 -488 -13 -2716 -15 -2812 -3 -44 5 -58 4 -58 -6 0 -34 -39 -37 -585 -45
-297 -5 -558 -9 -580 -11 -38 -2 -40 0 -43 29 -2 23 2 34 15 39 10 5 99 10
198 12 99 2 475 10 835 18 1024 23 2496 37 3165 31 336 -3 619 -6 630 -6 11
-1 56 3 100 8 95 11 368 14 443 6z m2376 -94 c54 -20 21 -58 -34 -39 -33 12
-40 35 -12 42 9 3 18 5 19 6 1 0 13 -3 27 -9z m-164 -9 c0 -11 -55 -19 -196
-27 -107 -6 -212 1 -200 14 17 17 396 29 396 13z m-1450 -10 c23 -6 20 -8 -22
-19 -51 -13 -110 -15 -145 -6 -39 11 -25 23 30 27 86 6 111 5 137 -2z m225 0
c9 -16 -30 -31 -79 -31 -51 0 -62 16 -18 26 15 3 32 7 37 9 21 7 54 5 60 -4z
m194 0 c39 -11 38 -31 -2 -31 -40 0 -97 18 -97 31 0 10 63 10 99 0z m311 0 c0
-5 -13 -14 -29 -21 -22 -9 -43 -9 -92 1 -100 19 -93 29 19 29 56 0 102 -4 102
-9z m240 1 c0 -11 -46 -32 -70 -32 -24 0 -70 21 -70 32 0 4 32 8 70 8 39 0 70
-4 70 -8z m-1262 -14 c-11 -33 -135 -33 -146 0 -3 9 17 12 73 12 57 0 76 -3
73 -12z m-1345 -31 c-35 -17 -63 -35 -63 -40 0 -5 19 -6 43 -3 117 18 124 18
158 0 l34 -19 -75 -7 c-105 -10 -432 2 -403 15 29 13 37 37 20 55 -12 12 -21
11 -64 -8 l-50 -21 -59 23 c-59 23 -59 23 -24 26 19 2 78 2 130 0 86 -3 99 -6
131 -30 44 -34 97 -54 110 -41 6 6 -8 22 -36 43 -25 19 -45 35 -45 37 0 2 57
3 128 2 l127 0 -62 -32z m320 26 c9 -8 -62 -52 -85 -53 -10 0 -32 9 -50 20
-18 11 -42 20 -53 21 l-20 0 20 9 c24 10 179 13 188 3z m213 -7 c10 -8 16 -18
12 -22 -9 -8 -116 15 -124 28 -9 14 91 9 112 -6z m84 4 c0 -5 -7 -10 -15 -10
-8 0 -15 5 -15 10 0 6 7 10 15 10 8 0 15 -4 15 -10z m210 0 c0 -22 -42 -32
-86 -20 -24 7 -44 17 -44 21 0 5 29 9 65 9 36 0 65 -4 65 -10z m140 0 c0 -5
-9 -10 -20 -10 -11 0 -20 5 -20 10 0 6 9 10 20 10 11 0 20 -4 20 -10z m110 0
c0 -5 -9 -10 -20 -10 -11 0 -20 5 -20 10 0 6 9 10 20 10 11 0 20 -4 20 -10z
m-3281 -19 c11 -7 7 -14 -20 -30 -40 -25 -93 -27 -142 -6 -21 9 -48 12 -66 9
-20 -4 -31 -2 -31 5 0 6 10 13 23 15 12 3 31 7 42 9 39 9 180 7 194 -2z m289
3 c12 -4 22 -10 22 -14 0 -13 -59 -30 -102 -30 -46 0 -112 25 -103 40 7 11
145 14 183 4z m211 -3 c22 -14 3 -31 -34 -31 -39 0 -87 19 -79 31 7 12 95 11
113 0z m291 -1 c0 -29 -117 -43 -139 -16 -10 11 -8 15 6 19 34 9 133 7 133 -3z
m270 0 c0 -13 -54 -40 -82 -40 -26 0 -68 25 -68 41 0 5 34 9 75 9 42 0 75 -4
75 -10z m315 0 c-3 -5 -43 -10 -88 -10 -57 0 -77 3 -67 10 20 13 163 13 155 0z
m230 1 c8 -13 -27 -31 -60 -31 -33 0 -68 18 -60 31 4 5 30 9 60 9 30 0 56 -4
60 -9z m3766 -1 c32 -18 21 -30 -26 -30 -46 0 -54 7 -33 28 15 15 33 15 59 2z
m-5706 -10 c10 -16 -55 -42 -109 -43 -40 -1 -59 4 -81 21 -22 17 -31 20 -42
11 -11 -10 -11 -15 3 -30 10 -11 22 -19 29 -19 6 0 20 -7 31 -15 16 -13 17
-16 4 -25 -18 -11 -150 -14 -150 -2 0 4 7 18 16 30 9 13 13 26 9 30 -3 3 -48
5 -100 4 -87 -3 -121 6 -100 26 15 15 481 27 490 12z m4506 -11 c39 -28 29
-39 -36 -39 -61 0 -75 12 -49 41 22 25 49 24 85 -2z m728 0 c30 -18 33 -22 18
-30 -27 -15 -87 0 -87 21 0 16 11 26 30 29 3 1 20 -9 39 -20z m236 7 c49 -21
44 -36 -13 -36 -58 0 -68 7 -45 32 19 22 16 21 58 4z m-6695 -11 c34 -21 -87
-42 -149 -25 -45 12 -53 26 -18 34 31 6 152 0 167 -9z m238 6 c20 -12 -33 -51
-69 -51 -30 0 -99 29 -99 41 0 17 145 25 168 10z m452 4 c0 -13 -40 -82 -60
-102 -20 -22 -60 -32 -60 -15 0 5 14 21 30 37 48 46 35 72 -20 40 -31 -17 -67
-19 -126 -4 -52 13 -53 31 -3 40 43 8 239 11 239 4z m5225 -4 c6 -10 -21 -41
-36 -41 -16 0 -10 29 9 39 21 13 20 13 27 2z m328 -10 c6 -6 8 -13 5 -17 -10
-10 -125 -17 -145 -9 -15 6 -11 11 22 26 41 20 99 19 118 0z m-6516 -8 c3 -7
-16 -18 -46 -27 -45 -13 -56 -13 -96 1 -26 8 -44 18 -41 20 7 8 115 21 150 19
16 0 31 -6 33 -13z m5558 -12 l60 -19 -115 -1 c-129 -1 -155 7 -119 33 29 21
83 17 174 -13z m-2289 4 c16 -8 38 -15 49 -15 19 -1 19 -1 2 -11 -11 -6 -110
-13 -235 -16 -197 -4 -215 -3 -198 11 29 24 84 30 146 18 82 -17 131 -15 165
8 36 24 35 24 71 5z m1720 -6 c2 -5 -6 -11 -19 -14 -33 -9 -92 -2 -92 10 0 21
98 24 111 4z m241 4 c5 -15 -47 -25 -112 -21 l-50 3 30 17 c34 20 126 21 132
1z m-5554 0 c-18 -2 -48 -2 -65 0 -18 2 -4 4 32 4 36 0 50 -2 33 -4z m4798 -3
c28 -16 23 -30 -10 -30 -37 0 -81 16 -81 30 0 13 66 13 91 0z m289 -5 c22 -12
23 -14 7 -21 -18 -7 -94 0 -104 9 -3 3 -2 10 2 16 9 15 65 13 95 -4z m1056 -4
c16 -10 8 -11 -41 -6 -33 3 -74 10 -90 15 -24 8 -15 9 41 6 39 -2 79 -9 90
-15z m484 9 c0 -5 -7 -10 -15 -10 -8 0 -15 5 -15 10 0 6 7 10 15 10 8 0 15 -4
15 -10z m-2715 -10 c13 -6 -11 -9 -70 -9 -59 0 -83 3 -70 9 11 5 43 9 70 9 28
0 59 -4 70 -9z m-1630 -14 l50 -12 -72 -17 c-85 -20 -119 -21 -129 -5 -11 17
34 48 70 47 17 0 54 -6 81 -13z m265 3 c27 -6 50 -14 50 -18 0 -10 -142 -21
-170 -14 -28 8 -20 27 16 34 44 10 49 10 104 -2z m535 -7 l30 -9 -40 -6 c-52
-9 -373 -7 -405 2 -24 7 -24 7 -5 20 22 14 366 8 420 -7z m1875 8 c0 -5 -9
-10 -20 -10 -11 0 -20 5 -20 10 0 6 9 10 20 10 11 0 20 -4 20 -10z m-2977 -11
c39 -11 47 -23 21 -33 -27 -10 -164 -7 -186 5 -21 11 -21 12 -3 25 22 17 114
18 168 3z m-1564 -10 c48 -17 37 -29 -26 -29 -66 0 -98 13 -73 30 20 13 60 13
99 -1z m282 0 c31 -16 12 -29 -42 -29 -36 0 -49 4 -49 14 0 25 55 34 91 15z
m279 1 c20 -5 45 -16 55 -25 18 -13 10 -14 -87 -15 -87 0 -108 3 -108 14 0 29
78 43 140 26z m-791 -9 c25 -16 -27 -33 -115 -39 -88 -5 -134 2 -134 20 0 7
15 9 43 5 24 -3 57 0 77 8 41 15 109 18 129 6z m1212 -12 c33 -17 21 -29 -29
-29 -49 0 -72 12 -72 38 0 11 9 13 41 8 23 -4 50 -11 60 -17z m6219 -94 l0
-95 -117 0 c-65 0 -226 -5 -358 -10 -407 -16 -1060 -29 -2000 -40 -495 -6
-1350 -17 -1900 -25 -550 -8 -1436 -20 -1970 -26 -533 -6 -1043 -14 -1133 -17
-99 -4 -167 -3 -173 3 -5 5 -9 53 -9 106 l0 97 43 6 c75 10 1031 25 2522 41
3171 32 3610 37 4165 44 316 4 655 8 753 9 l177 2 0 -95z m-1430 -175 c0 -5
-7 -10 -15 -10 -8 0 -15 5 -15 10 0 6 7 10 15 10 8 0 15 -4 15 -10z m68 -7
c-2 -10 -10 -18 -18 -18 -8 0 -16 8 -18 18 -2 12 3 17 18 17 15 0 20 -5 18
-17z m-1823 -23 c0 -8 -8 -16 -17 -18 -13 -2 -18 3 -18 18 0 15 5 20 18 18 9
-2 17 -10 17 -18z m105 10 c0 -5 -7 -10 -15 -10 -8 0 -15 5 -15 10 0 6 7 10
15 10 8 0 15 -4 15 -10z m1210 0 c0 -5 -7 -10 -15 -10 -8 0 -15 5 -15 10 0 6
7 10 15 10 8 0 15 -4 15 -10z m150 0 c0 -5 -9 -10 -20 -10 -11 0 -20 5 -20 10
0 6 9 10 20 10 11 0 20 -4 20 -10z m-1625 -20 c-3 -5 -19 -10 -35 -10 -16 0
-32 5 -35 10 -4 6 10 10 35 10 25 0 39 -4 35 -10z m-240 -15 c-22 -8 -42 -15
-45 -16 -3 0 6 -5 20 -9 35 -11 1066 -11 1895 0 1266 17 1263 17 1279 0 8 -8
21 -51 30 -95 13 -70 15 -648 19 -4812 l5 -4733 -163 0 c-141 0 -164 2 -169
16 -14 37 -26 1046 -26 2294 0 734 -5 2489 -11 3900 -9 1847 -9 2586 -1 2639
6 44 18 81 29 93 16 18 18 38 17 165 -1 79 -5 147 -9 151 -11 12 -326 7 -395
-5 -117 -21 -1645 -71 -1891 -61 -83 3 -121 9 -139 21 -54 35 -294 52 -323 22
-31 -30 -40 -85 -34 -195 4 -59 9 -114 13 -123 5 -15 24 -17 140 -17 155 0
190 10 222 63 l22 34 849 8 c783 7 1165 2 1187 -14 21 -14 66 -84 75 -114 5
-18 14 -178 19 -357 12 -399 14 -2362 2 -2410 -6 -29 -13 -36 -37 -38 -40 -5
-136 17 -157 35 -9 8 -78 35 -154 61 -148 50 -188 79 -93 68 69 -9 51 5 -51
39 -274 91 -706 99 -1095 20 -254 -51 -581 -189 -603 -252 -6 -21 19 -15 95
23 40 20 79 34 85 31 7 -2 -4 -11 -25 -20 -20 -9 -40 -23 -43 -31 -8 -20 -87
-56 -123 -56 -43 0 -67 41 -52 90 6 20 16 117 22 216 6 98 14 192 18 208 11
45 31 45 31 0 l0 -37 278 8 c152 5 430 10 617 13 768 9 1221 19 1244 29 23 9
23 10 5 17 -10 4 -185 11 -389 16 -203 5 -372 9 -374 9 -3 1 0 6 7 13 9 9 103
13 350 15 185 2 357 6 380 9 l44 6 -7 36 c-13 72 -15 73 -123 67 -53 -2 -270
-7 -482 -10 l-385 -5 -1 327 c-1 315 -16 616 -32 677 -5 16 -14 32 -21 34 -9
3 -10 -10 -4 -59 10 -82 11 -925 0 -962 -11 -40 -32 -21 -47 44 -9 38 -16 49
-29 47 -17 -4 -20 -43 -6 -84 6 -18 2 -22 -32 -27 -21 -4 -168 -7 -328 -7
-315 -1 -571 -13 -637 -31 -40 -10 -41 -12 -23 -25 10 -8 30 -14 44 -15 19 -1
13 -5 -23 -16 -34 -11 -51 -12 -59 -4 -6 6 -14 82 -18 182 -4 93 -9 173 -12
176 -11 10 -26 -7 -32 -37 -4 -17 -14 -45 -23 -63 -15 -29 -17 -88 -17 -577 0
-300 3 -557 8 -572 5 -19 14 -28 27 -28 27 0 25 -14 -5 -34 -30 -20 -31 -43
-9 -125 16 -58 16 -60 -5 -86 -34 -44 -24 -174 15 -189 16 -6 19 -55 4 -57 -5
-1 -16 -2 -22 -3 -7 0 -14 -11 -16 -23 -3 -18 2 -23 17 -23 16 0 21 -6 21 -29
0 -26 -24 -50 -38 -37 -18 19 -23 270 -20 1006 3 761 5 827 21 857 11 21 17
54 17 96 0 82 9 127 25 127 21 0 25 23 31 213 6 155 4 188 -9 220 -13 31 -21
38 -39 35 -31 -4 -36 -43 -9 -58 15 -8 21 -21 21 -46 0 -31 -2 -35 -21 -29
-18 6 -20 4 -13 -17 26 -82 34 -254 13 -275 -7 -7 -14 -57 -17 -112 -2 -56 -8
-101 -12 -101 -11 0 -20 213 -30 785 -11 612 -17 799 -31 954 -11 121 -21 161
-40 161 -13 0 -11 -255 12 -1490 7 -368 10 -1332 8 -2525 -6 -2828 -3 -4009
10 -4380 12 -365 20 -495 31 -495 18 0 22 299 29 2310 5 1180 9 2147 10 2149
11 42 16 -349 23 -2171 5 -1190 12 -2192 16 -2228 6 -55 9 -62 18 -45 6 11 15
42 19 70 6 43 9 47 20 32 21 -29 25 -20 25 53 0 102 5 105 171 113 74 4 562
10 1084 13 l951 7 -4 -131 c-4 -117 -2 -132 13 -138 10 -4 23 0 33 10 15 15
17 64 17 529 0 282 2 544 4 582 l4 70 8 -85 c4 -47 12 -285 18 -530 12 -490
17 -583 34 -577 26 8 28 83 12 477 -16 387 -15 677 4 747 11 42 20 -196 28
-754 l6 -490 -204 -7 c-112 -3 -496 -11 -854 -16 -357 -6 -919 -15 -1247 -20
-328 -6 -1254 -10 -2057 -10 l-1460 0 2 2163 c2 2091 -4 2734 -34 3962 -5 226
-14 642 -19 925 -9 505 -14 595 -31 606 -5 3 -5 14 1 24 13 25 27 259 41 694
11 358 10 488 -4 502 -10 10 -67 -16 -77 -37 -6 -10 -10 -79 -10 -153 0 -134
0 -136 -25 -152 -22 -14 -25 -23 -24 -68 l1 -51 15 35 c19 47 40 62 65 49 19
-10 19 -12 2 -30 -24 -26 -32 -135 -34 -414 -1 -126 -5 -337 -9 -468 -7 -197
-12 -241 -25 -256 -22 -25 -20 -40 8 -51 17 -6 27 -20 31 -43 11 -57 3 -82
-25 -82 -38 0 -40 -45 -3 -79 l28 -26 3 -218 c4 -228 -3 -276 -36 -270 -14 3
-18 19 -24 93 -3 50 -9 104 -13 122 -4 20 -1 50 8 80 33 101 34 193 2 193 -25
0 -24 124 1 172 13 25 13 31 -2 52 -23 37 -21 113 5 140 26 27 26 42 4 55 -17
9 -18 34 -18 313 0 280 1 305 19 331 21 30 15 47 -9 27 -19 -16 -19 -10 0 100
17 99 19 122 6 102 -7 -11 -10 -10 -15 3 -8 21 -8 401 0 393 3 -4 9 -37 13
-75 8 -63 8 -58 10 59 1 111 -1 128 -16 137 -37 20 6 35 158 56 27 3 66 19 91
35 40 27 57 31 164 39 168 14 873 35 882 26 8 -7 10 -298 3 -380 -3 -27 -1
-84 3 -126 9 -83 0 -209 -15 -209 -5 0 -9 8 -9 19 0 27 -28 48 -36 28 -12 -33
0 -71 26 -77 36 -8 36 -33 0 -74 -29 -33 -30 -36 -12 -36 50 0 70 -95 31 -145
-18 -21 -19 -29 -9 -35 8 -5 15 -33 18 -68 5 -74 -1 -97 -17 -59 -13 34 -51
50 -87 37 -33 -13 -29 -45 6 -45 18 0 29 -9 39 -30 7 -17 28 -45 45 -63 l31
-33 0 -180 c0 -153 -2 -182 -16 -192 -9 -7 -14 -18 -11 -25 2 -7 -3 -30 -12
-51 -12 -32 -13 -42 -2 -56 7 -10 18 -15 23 -12 13 8 20 -29 29 -155 7 -104
-1 -182 -17 -157 -5 8 -9 24 -9 37 0 12 -5 22 -11 22 -8 0 -10 -28 -7 -91 3
-71 8 -94 21 -104 24 -17 21 -30 -9 -44 -19 -8 -53 -9 -133 -1 -72 7 -219 7
-451 0 -382 -11 -520 -25 -504 -51 4 -7 122 -9 324 -7 290 3 345 0 327 -18 -9
-9 -247 -23 -397 -24 -156 0 -248 -9 -228 -21 19 -12 845 -10 1028 2 85 6 169
10 185 10 17 -1 122 -3 235 -4 113 -1 232 -6 264 -11 l59 -9 -7 26 c-8 33 4
34 33 3 16 -17 19 -26 11 -31 -7 -4 -235 -11 -508 -16 -1212 -22 -1403 -30
-1277 -54 47 -9 1801 3 2015 14 80 4 146 7 147 6 7 -4 15 -635 9 -635 -12 0
-205 110 -211 120 -3 5 14 1 39 -9 63 -27 116 -41 116 -30 0 23 -269 159 -356
180 -27 6 -68 20 -90 30 -39 18 -229 70 -301 83 -24 4 -33 2 -33 -8 0 -18 14
-23 128 -41 53 -9 101 -20 106 -25 21 -21 -8 -23 -92 -7 -82 16 -203 27 -438
42 -162 11 -156 23 23 45 58 7 49 8 -65 7 -124 -2 -134 -3 -150 -24 -24 -31
-52 -39 -203 -58 -74 -8 -160 -25 -192 -35 -31 -11 -75 -20 -96 -20 -53 0
-162 -24 -260 -56 -135 -44 -193 -96 -67 -60 76 22 79 20 16 -15 -56 -31 -100
-66 -100 -81 0 -19 56 -5 172 43 172 71 281 108 329 111 39 3 43 1 51 -27 15
-50 23 -917 9 -981 -7 -30 -17 -54 -22 -54 -5 0 -9 159 -9 397 0 335 -12 616
-26 632 -6 7 -44 -42 -62 -79 -14 -30 -17 -87 -20 -400 -2 -201 1 -429 5 -506
9 -133 11 -143 36 -173 30 -36 31 -39 17 -61 -8 -12 -13 -13 -30 -2 l-20 12 1
-827 c1 -646 4 -816 13 -775 6 29 15 53 21 53 30 0 29 -203 -2 -250 -27 -42
-35 -389 -30 -1331 5 -891 11 -1051 43 -1114 18 -37 7 -46 -61 -46 -69 0 -125
-11 -125 -23 0 -12 1217 -2 1270 11 48 12 -275 27 -378 18 -69 -7 -74 -6 -67
11 20 45 25 196 33 868 7 582 11 725 22 745 31 56 22 686 -10 725 -9 11 -9 18
2 29 22 21 30 257 21 570 l-8 261 -10 -137 c-5 -75 -13 -139 -16 -142 -10 -11
-21 298 -13 399 6 90 17 116 31 78 6 -15 7 -15 14 3 9 23 11 101 3 129 -3 12
-15 25 -27 30 -25 11 -36 61 -17 79 8 8 15 7 24 -6 21 -28 26 -22 26 30 0 58
-11 76 -39 67 -25 -8 -27 4 -6 60 19 53 19 104 0 111 -22 9 -18 37 8 70 32 42
28 99 -11 155 -40 58 -47 83 -26 100 14 12 19 10 39 -13 l22 -25 6 306 c9 477
-10 1041 -36 1067 -11 11 -27 -8 -27 -32 0 -14 -4 -22 -10 -19 -5 3 -10 15
-10 26 0 26 -20 32 -55 19 l-28 -11 7 -1917 c7 -1909 19 -3228 32 -3500 l7
-142 -259 2 -259 3 4 416 c4 435 11 560 25 419 4 -41 11 -232 16 -423 4 -192
10 -351 13 -353 11 -11 19 934 13 1451 -4 308 -11 1081 -15 1718 -5 637 -11
1161 -15 1164 -3 4 -6 2 -6 -3 -1 -5 -5 -85 -9 -177 -9 -162 -20 -215 -38
-171 -4 10 -7 78 -7 149 1 101 7 148 24 210 12 44 26 98 31 120 5 22 12 266
16 541 l6 502 61 13 c87 19 819 17 891 -2 l50 -14 6 -2630 c4 -1447 10 -2679
14 -2739 6 -105 15 -143 39 -158 7 -4 4 -13 -7 -26 -9 -10 -17 -22 -17 -25 0
-4 120 -8 268 -8 147 -1 280 -4 297 -8 43 -9 45 -38 3 -45 -18 -3 -496 -8
-1063 -10 -566 -3 -1048 -9 -1070 -13 -49 -10 -60 -38 -18 -47 16 -4 137 -2
268 3 355 15 1439 25 1680 16 384 -15 168 -25 -595 -29 -404 -3 -843 -9 -975
-15 -679 -30 -525 -39 721 -40 l1081 -1 6 -139 c6 -151 19 -205 34 -136 12 57
8 944 -4 975 -10 24 -10 24 -24 -15 -10 -29 -14 -94 -14 -232 0 -115 -4 -196
-10 -202 -16 -15 -156 -31 -273 -31 -98 0 -111 2 -144 25 -45 30 -46 30 -50 3
-4 -28 -23 -34 -33 -11 -27 68 -35 1667 -8 1694 9 9 13 4 17 -22 3 -19 7 -338
10 -709 4 -646 11 -819 36 -844 7 -7 8 242 5 780 -15 2123 -26 3307 -31 3348
-6 40 -10 46 -30 46 -33 0 -30 20 7 51 34 27 32 55 -2 44 -10 -4 -20 -5 -20
-3 -1 2 -7 134 -13 293 -9 222 -15 295 -26 313 -13 20 -13 26 3 53 23 41 22
56 -8 95 -29 38 -31 58 -10 107 19 46 19 141 1 170 -13 20 -20 53 -17 85 2 21
49 14 63 -10 10 -18 14 -143 19 -523 3 -275 7 -502 8 -505 1 -3 7 4 13 14 7
12 14 181 19 487 5 258 13 477 17 488 7 20 10 19 85 -13 96 -42 287 -147 331
-182 l33 -27 7 -2256 c4 -1241 11 -2294 14 -2341 4 -47 10 -80 15 -73 4 6 12
85 17 175 5 90 13 217 17 283 5 79 10 -150 14 -670 5 -616 10 -801 20 -840
l14 -50 54 -3 54 -3 -7 908 c-3 499 -8 2335 -11 4078 -5 2945 -2 3441 21 4080
7 205 -5 215 -214 191 -371 -43 -1945 -71 -2297 -41 -63 6 -240 -6 -250 -17
-3 -2 3 -74 11 -159 22 -214 32 -1475 34 -4359 3 -3371 11 -4629 29 -4660 l15
-25 8 45 c5 25 12 279 16 565 l7 520 8 -265 c4 -146 10 -305 14 -355 6 -79 8
-86 16 -55 14 56 15 1171 0 1195 -11 19 -12 19 -18 -5 -3 -14 -10 -48 -14 -75
-8 -49 -9 -49 -10 28 -1 73 1 79 29 109 28 29 30 36 30 109 0 83 13 113 24 51
3 -20 6 -388 6 -817 0 -704 6 -935 25 -1038 l7 -34 -264 5 c-144 2 -264 6
-266 7 -2 2 -4 419 -5 926 -2 851 -1 930 16 1000 15 68 16 80 2 112 -23 56
-37 448 -33 949 2 315 6 450 14 458 9 9 7 20 -5 43 -15 29 -16 284 -21 3047
-3 1658 -9 3021 -13 3028 -33 50 -46 -27 -57 -338 -6 -151 -15 -307 -21 -346
-8 -53 -8 -85 0 -125 7 -30 15 -109 18 -176 l6 -123 -84 -1 c-101 -1 -170 -10
-169 -24 0 -12 69 -13 163 -2 l67 8 0 -53 c0 -29 -4 -57 -8 -63 -12 -17 -101
-55 -127 -55 -13 0 -40 8 -60 17 -19 9 -38 14 -41 10 -14 -13 7 -53 36 -70 43
-26 83 -24 130 6 48 33 80 35 80 7 0 -12 -15 -60 -33 -108 -41 -105 -50 -148
-37 -172 7 -13 6 -20 -3 -23 -15 -5 -15 -224 1 -657 7 -173 16 -706 20 -1183
7 -857 7 -869 27 -885 20 -16 21 -25 17 -192 l-4 -174 -47 53 c-53 60 -71 65
-154 41 -40 -12 -49 -12 -56 -1 -10 16 4 81 25 124 11 21 19 78 25 191 11 206
11 2366 0 2591 -8 156 -11 175 -37 235 -28 64 -29 69 -29 240 0 182 6 230 29
230 21 0 26 24 26 131 l0 99 29 0 c18 0 32 7 37 18 11 26 16 325 6 341 -24 35
-32 -4 -32 -152 0 -140 -8 -192 -26 -174 -4 3 -11 53 -16 109 -5 57 -13 127
-19 156 -10 48 -12 52 -24 35 -7 -10 -17 -14 -22 -10 -4 5 -10 73 -11 151 -6
216 9 236 175 236 80 0 133 14 116 31 -6 6 -76 15 -156 20 -148 9 -208 22
-191 39 13 13 525 27 1459 40 2041 27 2411 36 2523 56 68 13 12 26 -139 33
l-154 8 225 1 c207 1 222 0 185 -13z m-2210 -5 c-3 -5 -33 -10 -66 -10 -33 0
-59 4 -59 10 0 6 29 10 66 10 41 0 63 -4 59 -10z m170 0 c4 -6 -5 -10 -20 -10
-15 0 -24 4 -20 10 3 6 12 10 20 10 8 0 17 -4 20 -10z m240 0 c4 -6 -5 -10
-20 -10 -15 0 -24 4 -20 10 3 6 12 10 20 10 8 0 17 -4 20 -10z m220 0 c4 -6
-5 -10 -20 -10 -15 0 -24 4 -20 10 3 6 12 10 20 10 8 0 17 -4 20 -10z m520 0
c4 -6 -7 -10 -25 -10 -18 0 -29 4 -25 10 3 6 15 10 25 10 10 0 22 -4 25 -10z
m4422 -4 c13 -13 -12 -61 -33 -64 -16 -2 -23 4 -28 23 -5 18 -15 27 -36 32
-49 9 -21 26 36 21 30 -3 57 -8 61 -12z m170 -7 c22 -22 -5 -59 -44 -59 -53 0
-99 48 -60 63 23 10 93 7 104 -4z m-6322 -9 c14 -6 4 -9 -35 -8 -42 0 -49 2
-30 8 32 10 41 10 65 0z m-1107 -27 c-27 -2 -69 -2 -95 0 -27 2 -5 3 47 3 52
0 74 -1 48 -3z m235 0 c-7 -2 -21 -2 -30 0 -10 3 -4 5 12 5 17 0 24 -2 18 -5z
m6937 -23 c0 -5 -7 -10 -15 -10 -8 0 -15 5 -15 10 0 6 7 10 15 10 8 0 15 -4
15 -10z m-488 -380 c27 0 39 -34 47 -131 l7 -89 -107 0 c-128 0 -132 3 -137
104 -4 63 -1 73 18 91 21 19 98 36 135 29 11 -2 28 -4 37 -4z m-3418 -62 c3
-29 7 -89 8 -133 l3 -80 -108 -3 c-96 -2 -108 -1 -113 15 -14 49 -33 70 -84
95 l-55 27 50 2 c28 0 61 4 75 8 22 6 25 12 22 48 -4 49 2 54 82 63 121 14
114 17 120 -42z m1013 26 c29 -4 60 -12 70 -19 17 -13 16 -15 -12 -45 -25 -26
-31 -42 -35 -93 l-5 -62 -107 -3 c-144 -4 -148 0 -148 139 l0 102 93 -7 c50
-4 115 -9 144 -12z m2076 -4 c-60 -24 -919 -54 -1008 -35 l-40 9 55 7 c30 4
170 8 310 9 208 2 436 8 675 18 27 1 28 0 8 -8z m-5540 -25 c54 -9 68 -55 51
-177 l-6 -45 -112 -6 c-77 -3 -113 -1 -119 7 -16 21 0 167 21 195 29 39 55 43
165 26z m2177 5 c52 -33 -107 -45 -710 -55 -607 -9 -1239 -24 -1303 -31 -53
-6 -59 -4 -55 12 2 12 16 21 38 25 33 7 660 32 1215 48 386 12 798 12 815 1z
m1660 -20 c0 -5 -4 -10 -10 -10 -5 0 -10 5 -10 10 0 6 5 10 10 10 6 0 10 -4
10 -10z m180 6 c0 -3 -4 -8 -10 -11 -5 -3 -10 -1 -10 4 0 6 5 11 10 11 6 0 10
-2 10 -4z m60 -6 c0 -5 -4 -10 -10 -10 -5 0 -10 5 -10 10 0 6 5 10 10 10 6 0
10 -4 10 -10z m50 6 c0 -3 -4 -8 -10 -11 -5 -3 -10 -1 -10 4 0 6 5 11 10 11 6
0 10 -2 10 -4z m193 -3 c-13 -2 -33 -2 -45 0 -13 2 -3 4 22 4 25 0 35 -2 23
-4z m-138 -43 c13 -6 -7 -8 -60 -8 -55 0 -72 3 -55 8 33 11 90 11 115 0z m265
0 c11 -7 4 -10 -25 -9 -31 0 -36 2 -20 9 26 11 28 11 45 0z m673 3 c-40 -2
-107 -2 -150 0 -43 1 -10 3 72 3 83 0 118 -2 78 -3z m-1230 -10 c-7 -2 -21 -2
-30 0 -10 3 -4 5 12 5 17 0 24 -2 18 -5z m-1878 -23 c-46 -12 -315 -12 -315 0
0 6 63 10 173 9 101 -1 160 -5 142 -9z m1628 3 c-13 -2 -33 -2 -45 0 -13 2 -3
4 22 4 25 0 35 -2 23 -4z m102 -3 c-3 -5 -10 -10 -16 -10 -5 0 -9 5 -9 10 0 6
7 10 16 10 8 0 12 -4 9 -10z m-2185 -9 c0 -13 -54 -21 -149 -21 -47 0 -101 -4
-119 -9 -17 -5 -32 -8 -32 -6 0 10 46 28 89 35 65 11 211 12 211 1z m-371 -10
c31 -20 -29 -25 -374 -32 -198 -4 -438 -11 -532 -15 -124 -5 -173 -4 -173 4 0
18 43 21 425 35 441 17 636 19 654 8z m451 -1 c0 -5 -7 -10 -15 -10 -8 0 -15
5 -15 10 0 6 7 10 15 10 8 0 15 -4 15 -10z m542 -66 c3 -2 9 -18 13 -34 4 -17
17 -38 30 -46 13 -8 26 -23 30 -32 13 -33 24 -633 25 -1402 l1 -775 -503 -6
c-388 -5 -506 -3 -516 6 -25 22 -34 388 -36 1342 0 512 1 934 4 937 16 15 926
25 952 10z m-3082 -38 c0 -3 -4 -8 -10 -11 -5 -3 -10 -1 -10 4 0 6 5 11 10 11
6 0 10 -2 10 -4z m6755 -71 c7 -73 -2 -240 -13 -259 -12 -22 -21 36 -21 150
-1 123 5 184 19 184 4 0 11 -34 15 -75z m-77 30 c7 -33 -9 -129 -19 -114 -14
23 -11 141 4 137 6 -3 14 -13 15 -23z m-3424 -17 c3 -13 9 -283 15 -600 5
-343 13 -584 19 -594 16 -29 26 81 20 226 -3 69 -2 150 1 180 l6 55 8 -64 c11
-97 7 -938 -4 -996 -6 -27 -13 -68 -16 -90 -3 -22 -12 -49 -19 -60 -8 -11 -14
-34 -14 -52 0 -17 -4 -34 -9 -37 -15 -10 -19 124 -30 1044 -6 492 -13 918 -16
946 -2 28 -2 54 2 57 14 14 33 6 37 -15z m-3267 -25 c-3 -10 -5 -4 -5 12 0 17
2 24 5 18 2 -7 2 -21 0 -30z m3346 -147 c7 -184 -3 -463 -14 -401 -11 56 -11
567 -1 561 5 -3 12 -75 15 -160z m-3338 45 c3 -5 1 -12 -5 -16 -5 -3 -10 1
-10 9 0 18 6 21 15 7z m6745 -191 c0 -5 -4 -10 -10 -10 -5 0 -10 5 -10 10 0 6
5 10 10 10 6 0 10 -4 10 -10z m0 -115 c0 -8 -4 -17 -10 -20 -6 -4 -10 5 -10
20 0 15 4 24 10 20 6 -3 10 -12 10 -20z m-53 -112 c-2 -16 -4 -3 -4 27 0 30 2
43 4 28 2 -16 2 -40 0 -55z m68 -613 c8 -507 2 -741 -18 -721 -15 15 -22 678
-11 1036 11 387 20 287 29 -315z m-65 260 c0 -242 -7 -331 -21 -295 -9 24 -11
444 -3 509 14 101 24 14 24 -214z m-6422 -1470 c0 -882 -9 -1164 -20 -636 -10
448 -10 1236 0 1481 l7 190 6 -155 c4 -85 6 -481 7 -880z m6989 928 c-3 -7 -5
-2 -5 12 0 14 2 19 5 13 2 -7 2 -19 0 -25z m-577 -168 c0 -36 -10 -61 -21 -54
-10 6 -12 54 -3 78 9 24 24 9 24 -24z m-6680 -24 c0 -3 -4 -8 -10 -11 -5 -3
-10 -1 -10 4 0 6 5 11 10 11 6 0 10 -2 10 -4z m-8 -123 c2 -10 1 -29 -2 -43
l-7 -25 -12 28 c-6 16 -11 35 -11 43 0 20 27 17 32 -3z m6701 -2498 c-3 -572
-9 -1047 -14 -1055 -10 -19 -12 3048 -1 3330 12 330 21 -1059 15 -2275z
m-6706 2313 c-2 -13 -4 -5 -4 17 -1 22 1 32 4 23 2 -10 2 -28 0 -40z m7250
-65 c-2 -21 -4 -4 -4 37 0 41 2 58 4 38 2 -21 2 -55 0 -75z m268 98 c3 -5 1
-12 -5 -16 -5 -3 -10 1 -10 9 0 18 6 21 15 7z m-747 -556 c1 -388 -9 -522 -21
-295 -9 168 -9 754 1 777 14 35 20 -100 20 -482z m772 365 c0 -5 -4 -10 -10
-10 -5 0 -10 5 -10 10 0 6 5 10 10 10 6 0 10 -4 10 -10z m-4200 -16 c0 -8 -4
-12 -10 -9 -5 3 -10 10 -10 16 0 5 5 9 10 9 6 0 10 -7 10 -16z m990 -86 c0
-16 -3 -19 -11 -11 -6 6 -8 16 -5 22 11 17 16 13 16 -11z m2204 -4 c27 -11 18
-34 -13 -34 -29 0 -57 21 -44 33 8 9 36 9 57 1z m725 -251 c0 -70 -3 -113 -9
-113 -6 0 -9 68 -8 188 1 145 3 170 8 112 4 -41 8 -126 9 -187z m-4296 215
c21 -12 19 -13 -23 -19 -51 -9 -168 0 -176 12 -16 27 152 33 199 7z m3376 13
c10 -7 11 -10 1 -16 -19 -12 -220 -24 -402 -24 -163 -1 -188 -4 -188 -27 0
-37 -88 -58 -126 -29 -18 14 -18 14 8 15 31 0 45 15 22 24 -9 3 -120 6 -247 6
-165 1 -227 4 -214 11 11 6 197 14 475 20 371 8 615 18 652 27 3 1 11 -2 19
-7z m-3149 -37 c6 -14 10 -44 10 -67 l0 -41 -30 29 c-33 32 -39 55 -13 55 15
0 15 1 0 18 -22 24 -21 32 3 32 13 0 24 -10 30 -26z m-701 7 c7 -5 10 -14 7
-20 -8 -13 -141 -15 -226 -4 l-55 7 70 12 c86 14 185 17 204 5z m174 2 c-13
-2 -33 -2 -45 0 -13 2 -3 4 22 4 25 0 35 -2 23 -4z m2317 -1 c0 -12 -46 -32
-71 -32 -11 0 -17 -4 -14 -10 4 -6 63 -10 146 -10 126 0 170 -9 122 -24 -32
-10 -344 -26 -514 -26 -132 0 -169 3 -178 14 -17 20 15 36 71 36 26 0 55 8 73
20 22 15 46 20 90 19 l60 -1 -37 -12 c-20 -6 -40 -14 -44 -18 -14 -15 101 -8
131 8 57 30 165 53 165 36z m-3136 -21 c9 -15 -21 -21 -100 -21 -68 0 -98 12
-56 23 32 9 151 7 156 -2z m229 2 c-24 -2 -62 -2 -85 0 -24 2 -5 4 42 4 47 0
66 -2 43 -4z m-2074 -275 c-4 -69 -6 -46 -6 92 0 138 2 161 6 93 4 -51 4 -135
0 -185z m2691 258 c0 -3 -4 -8 -10 -11 -5 -3 -10 -1 -10 4 0 6 5 11 10 11 6 0
10 -2 10 -4z m342 -28 c-9 -9 -12 -7 -12 12 0 19 3 21 12 12 9 -9 9 -15 0 -24z
m1301 -179 l-10 -144 0 175 c-1 130 2 167 9 144 7 -20 7 -80 1 -175z m982 181
c4 -6 -5 -10 -20 -10 -15 0 -24 4 -20 10 3 6 12 10 20 10 8 0 17 -4 20 -10z
m110 -10 c0 -10 -12 -16 -37 -18 -37 -3 -51 12 -31 32 13 13 68 2 68 -14z
m-2085 -6 c0 -8 -4 -12 -10 -9 -5 3 -10 10 -10 16 0 5 5 9 10 9 6 0 10 -7 10
-16z m-412 -31 c-10 -2 -26 -2 -35 0 -10 3 -2 5 17 5 19 0 27 -2 18 -5z m4592
-43 c0 -5 -4 -10 -10 -10 -5 0 -10 5 -10 10 0 6 5 10 10 10 6 0 10 -4 10 -10z
m-6665 -32 c3 -18 5 -384 3 -813 l-3 -780 -23 -37 c-25 -40 -40 -145 -43 -293
l-1 -80 -9 55 c-10 60 -1 1235 10 1225 3 -4 8 -139 11 -300 3 -161 8 -297 13
-301 4 -4 10 -4 15 0 8 9 6 649 -3 824 -6 106 -9 122 -24 120 -25 -4 -26 47
-2 78 29 37 30 124 1 131 -11 3 -20 11 -20 19 0 7 9 18 20 24 11 6 20 20 20
30 0 13 -7 20 -20 20 -16 0 -20 7 -20 37 0 68 64 103 75 41z m4895 -117 c21
-7 17 -9 -25 -14 -27 -4 -117 -12 -200 -17 -264 -17 -429 -49 -410 -80 11 -18
-42 -39 -141 -54 -128 -20 -148 -20 -114 -1 l25 14 -37 1 c-20 0 -65 -9 -100
-20 -34 -11 -74 -20 -88 -20 l-25 1 25 14 c83 49 465 132 770 169 125 15 280
18 320 7z m1805 -1 c10 -16 -14 -50 -35 -50 -14 0 -20 7 -20 24 0 31 40 50 55
26z m-1668 -26 c8 -21 -13 -42 -28 -27 -13 13 -5 43 11 43 6 0 13 -7 17 -16z
m139 -25 c24 -6 47 -16 51 -22 9 -15 -96 1 -121 19 -20 14 -20 14 2 14 13 0
43 -5 68 -11z m-361 -19 c-3 -5 -15 -10 -26 -10 -10 0 -19 5 -19 10 0 6 12 10
26 10 14 0 23 -4 19 -10z m1582 -47 c-3 -10 -5 -2 -5 17 0 19 2 27 5 18 2 -10
2 -26 0 -35z m-1824 30 c-24 -2 -62 -2 -85 0 -24 2 -5 4 42 4 47 0 66 -2 43
-4z m472 -3 c4 -6 -8 -10 -30 -10 -22 0 -34 4 -30 10 3 6 17 10 30 10 13 0 27
-4 30 -10z m-2558 -107 c-2 -21 -4 -6 -4 32 0 39 2 55 4 38 2 -18 2 -50 0 -70z
m-2542 67 c3 -5 1 -10 -4 -10 -6 0 -11 5 -11 10 0 6 2 10 4 10 3 0 8 -4 11
-10z m5223 -7 c-10 -2 -26 -2 -35 0 -10 3 -2 5 17 5 19 0 27 -2 18 -5z m-618
-26 c20 -10 32 -10 65 1 30 11 83 13 220 9 162 -4 192 -7 299 -36 66 -17 124
-38 130 -45 6 -7 48 -26 94 -40 46 -15 156 -57 245 -94 l162 -67 3 -2676 2
-2676 -82 -6 c-148 -12 -342 -8 -362 6 -14 10 -20 35 -27 103 -4 49 -11 1277
-16 2729 -4 1452 -10 2611 -14 2575 -4 -36 -12 -254 -18 -485 -6 -231 -13
-471 -14 -533 -4 -150 -22 -168 -31 -30 -8 114 9 616 24 718 13 88 13 86 -12
110 -22 20 -23 29 -24 181 -2 167 -7 200 -26 181 -7 -7 -12 -246 -17 -804 -10
-1343 -8 -1718 8 -1756 12 -29 12 -35 -4 -52 -11 -12 -20 -42 -23 -74 -4 -46
-1 -57 17 -72 26 -22 27 -59 4 -74 -17 -10 -17 -10 0 -20 23 -15 22 -32 -4
-48 l-21 -13 21 -23 21 -22 -21 -42 c-21 -41 -21 -48 -17 -889 3 -775 5 -851
21 -887 22 -49 22 -124 1 -147 -18 -21 -32 -133 -16 -142 5 -4 13 8 18 26 7
26 9 18 12 -47 2 -49 -3 -103 -13 -141 -10 -40 -15 -107 -15 -192 l0 -130 -92
-6 c-51 -4 -167 -10 -257 -13 -139 -6 -163 -5 -159 7 3 8 14 13 25 11 14 -2
22 4 27 20 8 33 6 464 -7 1273 -11 649 -14 712 -30 735 -15 22 -17 41 -11 165
5 113 4 147 -9 176 -11 27 -12 41 -4 55 17 30 25 349 26 994 1 327 5 601 10
609 11 16 17 -271 31 -1339 11 -845 29 -1817 34 -1860 2 -14 4 420 4 965 2
1023 -13 2266 -27 2345 -5 25 -9 36 -10 25 -2 -27 -18 -51 -28 -42 -4 5 -10
234 -13 510 -6 511 -10 554 -44 541 -18 -7 -30 29 -22 62 5 17 13 24 30 24 18
0 25 7 30 31 10 50 7 210 -5 252 -12 44 -35 49 -50 10 -10 -25 -16 -412 -8
-503 2 -19 -1 -47 -5 -62 -7 -22 -5 -28 8 -28 19 0 23 -56 4 -62 -9 -3 -15
-59 -22 -196 -11 -228 2 -573 22 -580 14 -4 17 -72 2 -72 -5 0 -10 -9 -10 -20
0 -11 5 -20 10 -20 17 0 11 -27 -7 -34 -15 -6 -16 -81 -9 -1024 3 -559 11
-1152 18 -1317 14 -366 14 -379 3 -533 -6 -89 -5 -146 5 -207 12 -79 12 -86
-5 -106 -22 -23 -10 -54 20 -54 28 0 38 -54 33 -174 -4 -105 -10 -120 -52
-134 -8 -3 -10 -69 -8 -225 l4 -222 -370 0 c-203 0 -437 -3 -520 -7 l-152 -6
0 71 c0 66 -9 88 -25 62 -22 -36 -34 42 -19 119 6 28 8 29 19 14 24 -33 27
308 25 2722 -2 1331 -2 2426 -2 2433 3 17 39 15 45 -2 7 -19 34 -11 147 42
153 72 459 167 640 197 99 17 140 17 170 2z m788 -2 c32 -10 52 -21 52 -30 0
-22 -43 -19 -73 5 -14 11 -39 20 -56 20 -17 0 -31 5 -31 10 0 15 49 12 108 -5z
m-1862 -32 c-10 -10 -19 5 -10 18 6 11 8 11 12 0 2 -7 1 -15 -2 -18z m-1576
-50 c84 -33 183 -83 177 -89 -2 -3 -63 20 -134 51 -71 30 -135 55 -141 55 -7
0 -12 5 -12 11 0 12 18 7 110 -28z m3596 18 c123 -41 289 -117 292 -134 6 -28
-25 -20 -122 32 -50 27 -120 61 -156 76 -57 24 -94 45 -79 45 3 0 32 -9 65
-19z m918 -18 c10 -62 7 -643 -3 -643 -14 0 -20 65 -23 250 -6 343 5 515 26
393z m-2519 8 c-27 -10 -79 -33 -114 -50 -70 -36 -90 -36 -40 0 45 32 139 69
174 68 26 0 24 -3 -20 -18z m-396 -90 c14 -26 -10 -48 -29 -26 -13 16 -7 45 9
45 6 0 15 -9 20 -19z m-2324 -10 c3 -5 1 -12 -5 -16 -5 -3 -10 1 -10 9 0 18 6
21 15 7z m1274 -470 c12 -21 14 -22 28 -8 9 9 19 33 24 54 5 29 7 18 6 -42 -2
-77 -3 -80 -25 -78 -16 2 -25 -4 -32 -23 -7 -16 -11 -408 -11 -1062 -1 -571
-4 -1080 -8 -1132 -4 -52 -8 551 -8 1340 0 789 3 1331 7 1205 5 -153 11 -238
19 -254z m64 404 c0 -30 -7 -40 -22 -31 -13 8 -24 63 -16 77 11 17 38 -15 38
-46z m1127 31 c0 -3 -4 -8 -10 -11 -5 -3 -10 -1 -10 4 0 6 5 11 10 11 6 0 10
-2 10 -4z m2278 -736 c0 -360 -4 -718 -7 -795 -4 -77 -8 238 -8 700 0 462 3
820 8 795 4 -25 7 -340 7 -700z m-4675 663 c4 -38 7 -132 7 -211 0 -111 -3
-143 -12 -140 -10 4 -14 57 -16 211 -2 202 9 275 21 140z m-2096 25 c-3 -7 -5
-2 -5 12 0 14 2 19 5 13 2 -7 2 -19 0 -25z m803 -82 c0 -3 -4 -8 -10 -11 -5
-3 -10 -1 -10 4 0 6 5 11 10 11 6 0 10 -2 10 -4z m3526 -23 c-10 -10 -19 5
-10 18 6 11 8 11 12 0 2 -7 1 -15 -2 -18z m-2866 -67 c0 -3 -4 -8 -10 -11 -5
-3 -10 -1 -10 4 0 6 5 11 10 11 6 0 10 -2 10 -4z m-1463 -183 c-2 -16 -4 -5
-4 22 0 28 2 40 4 28 2 -13 2 -35 0 -50z m1458 -13 c3 -5 1 -10 -4 -10 -6 0
-11 5 -11 10 0 6 2 10 4 10 3 0 8 -4 11 -10z m659 -422 c0 -152 -2 -280 -7
-284 -4 -4 -13 -2 -20 5 -14 14 -18 594 -3 626 19 42 28 -71 30 -347z m5466
352 c0 -5 -4 -10 -10 -10 -5 0 -10 5 -10 10 0 6 5 10 10 10 6 0 10 -4 10 -10z
m-6120 -64 c0 -3 -4 -8 -10 -11 -5 -3 -10 -1 -10 4 0 6 5 11 10 11 6 0 10 -2
10 -4z m1160 -56 c0 -10 -4 -22 -10 -25 -6 -4 -10 7 -10 25 0 18 4 29 10 25 6
-3 10 -15 10 -25z m740 -42 c-7 -19 -9 -15 -9 22 0 37 2 41 9 23 6 -14 6 -32
0 -45z m-3363 15 c-3 -10 -5 -4 -5 12 0 17 2 24 5 18 2 -7 2 -21 0 -30z m1450
-75 c-3 -7 -5 -2 -5 12 0 14 2 19 5 13 2 -7 2 -19 0 -25z m-1442 -38 c3 -5 1
-10 -4 -10 -6 0 -11 5 -11 10 0 6 2 10 4 10 3 0 8 -4 11 -10z m0 -119 c3 -5 1
-12 -5 -16 -5 -3 -10 1 -10 9 0 18 6 21 15 7z m1442 -63 c-3 -7 -5 -2 -5 12 0
14 2 19 5 13 2 -7 2 -19 0 -25z m1191 -35 c2 -8 -5 -13 -17 -13 -12 0 -21 6
-21 16 0 18 31 15 38 -3z m1652 -38 c0 -25 -4 -45 -10 -45 -5 0 -10 20 -10 45
0 25 5 45 10 45 6 0 10 -20 10 -45z m40 5 c0 -5 -2 -10 -4 -10 -3 0 -8 5 -11
10 -3 6 -1 10 4 10 6 0 11 -4 11 -10z m10 -77 c0 -12 -4 -25 -10 -28 -12 -8
-24 40 -16 62 6 15 8 15 16 3 6 -8 10 -25 10 -37z m-1720 8 c0 -6 -4 -13 -10
-16 -5 -3 -10 1 -10 9 0 9 5 16 10 16 6 0 10 -4 10 -9z m-2460 -43 c23 -37 27
-127 8 -146 -16 -16 -50 -15 -73 2 -15 11 -19 25 -18 67 2 106 42 143 83 77z
m-163 -60 c-3 -7 -5 -2 -5 12 0 14 2 19 5 13 2 -7 2 -19 0 -25z m3371 -118 c0
-41 -4 -86 -8 -100 -5 -15 -8 26 -8 105 0 80 3 118 8 100 4 -16 8 -64 8 -105z
m980 118 c9 -9 7 -19 -7 -42 -11 -19 -21 -60 -24 -105 -7 -80 -11 -91 -30 -72
-17 17 -23 197 -7 216 15 18 51 20 68 3z m-1728 -7 c0 -6 -4 -13 -10 -16 -5
-3 -10 1 -10 9 0 9 5 16 10 16 6 0 10 -4 10 -9z m70 -88 c0 -39 -4 -75 -10
-78 -6 -4 -10 27 -10 87 0 64 3 88 10 78 5 -8 10 -47 10 -87z m3396 21 c10
-82 0 -352 -13 -365 -20 -20 -28 36 -28 196 0 150 8 225 25 225 5 0 12 -25 16
-56z m-5836 -59 c0 -96 -14 -198 -35 -257 -25 -71 -37 -248 -29 -456 l6 -192
52 5 51 6 -24 -20 c-13 -12 -29 -21 -36 -21 -43 0 -48 -150 -26 -800 16 -488
31 -1202 32 -1635 2 -341 11 -642 19 -570 1 17 6 84 10 150 4 74 7 -79 8 -397
l2 -518 -135 0 -135 0 0 96 c0 87 2 96 20 101 24 6 26 30 4 61 -8 12 -13 26
-10 31 3 4 40 11 83 15 43 4 95 10 116 13 38 6 50 26 21 37 -29 11 -149 5
-189 -9 -22 -8 -41 -15 -43 -15 -2 0 -2 10 0 22 2 12 14 28 27 35 13 6 29 19
34 28 7 14 21 15 97 9 95 -7 116 2 85 36 -49 54 -152 46 -225 -18 l-43 -36 7
70 c9 85 24 150 44 189 28 54 33 457 22 1865 -12 1481 -19 1762 -54 2040 -12
102 -21 187 -19 190 2 2 22 -17 44 -43 26 -29 49 -47 62 -47 36 0 91 45 117
94 31 57 40 45 40 -59z m615 20 c6 -55 -3 -430 -11 -422 -7 7 -23 235 -26 357
-3 167 20 207 37 65z m595 31 c0 -3 -4 -8 -10 -11 -5 -3 -10 -1 -10 4 0 6 5
11 10 11 6 0 10 -2 10 -4z m1180 -70 c0 -28 -15 -50 -29 -42 -12 8 -15 68 -4
79 10 11 33 -14 33 -37z m-600 -90 c0 -16 -18 -31 -27 -22 -8 8 5 36 17 36 5
0 10 -6 10 -14z m644 -48 c9 -36 7 -718 -3 -718 -5 0 -12 93 -16 208 -5 141
-11 213 -20 227 -10 17 -10 24 1 40 10 14 14 53 14 142 0 114 9 154 24 101z
m-1237 -35 c-3 -10 -5 -4 -5 12 0 17 2 24 5 18 2 -7 2 -21 0 -30z m88 -26 c0
-15 -4 -28 -9 -29 -14 -5 -30 28 -23 46 10 26 32 14 32 -17z m5735 26 c0 -5
-5 -15 -10 -23 -7 -11 -12 -12 -21 -3 -6 6 -8 16 -5 22 8 12 36 15 36 4z
m-1820 -30 c0 -20 -3 -24 -11 -16 -7 7 -9 19 -6 27 10 24 17 19 17 -11z
m-2830 -54 c0 -5 -4 -9 -10 -9 -5 0 -10 7 -10 16 0 8 5 12 10 9 6 -3 10 -10
10 -16z m-1096 -186 c-1 -82 -4 -163 -8 -179 -15 -58 -29 6 -30 135 -1 137 8
205 27 198 9 -3 12 -46 11 -154z m1838 4 c-9 -39 -10 -37 -10 38 0 73 1 76 10
42 7 -26 7 -53 0 -80z m-2562 33 c0 -14 -5 -32 -10 -40 -7 -11 -10 1 -10 40 0
39 3 51 10 40 5 -8 10 -26 10 -40z m5286 5 c9 -61 1 -182 -13 -196 -17 -17
-35 24 -40 95 -9 114 37 203 53 101z m675 -193 c-8 -15 -11 -13 -21 13 -12 31
-6 92 14 135 9 22 11 14 14 -53 2 -42 -2 -85 -7 -95z m-5901 -59 c0 -174 -9
-230 -27 -166 -10 37 -10 332 0 358 18 44 27 -16 27 -192z m1770 163 c0 -16
-18 -31 -27 -22 -8 8 5 36 17 36 5 0 10 -6 10 -14z m4620 -16 c0 -5 -5 -10
-11 -10 -5 0 -7 5 -4 10 3 6 8 10 11 10 2 0 4 -4 4 -10z m-3893 -97 c-3 -10
-5 -2 -5 17 0 19 2 27 5 18 2 -10 2 -26 0 -35z m3911 -41 c5 -74 -3 -142 -17
-142 -13 0 -22 108 -15 172 9 78 25 62 32 -30z m-1818 68 c0 -5 -2 -10 -4 -10
-3 0 -8 5 -11 10 -3 6 -1 10 4 10 6 0 11 -4 11 -10z m-1080 -113 c-7 -17 -9
-10 -9 28 1 43 2 46 9 22 5 -16 5 -38 0 -50z m2399 -1201 c1 -674 -2 -1007 -9
-1000 -27 27 -38 1981 -12 2189 7 57 7 53 13 -60 4 -66 7 -574 8 -1129z m-680
-172 c1 -1027 -2 -1185 -23 -1164 -8 8 -13 164 -16 498 -3 268 -9 495 -13 504
-5 9 -16 19 -24 22 -14 6 -13 10 7 31 21 23 23 36 31 217 4 106 8 407 9 669 0
262 3 505 8 540 13 119 19 -255 21 -1317z m-4550 1151 c1 -192 -8 -320 -23
-305 -12 12 -13 471 0 491 15 25 22 -30 23 -186z m521 126 c13 -26 13 -31 -4
-31 -13 0 -26 20 -26 41 0 16 19 10 30 -10z m573 12 c-7 -2 -19 -2 -25 0 -7 3
-2 5 12 5 14 0 19 -2 13 -5z m-1833 -37 c0 -3 -4 -8 -10 -11 -5 -3 -10 -1 -10
4 0 6 5 11 10 11 6 0 10 -2 10 -4z m655 -46 c3 -5 1 -10 -4 -10 -6 0 -11 5
-11 10 0 6 2 10 4 10 3 0 8 -4 11 -10z m1913 -165 c0 -44 -4 -93 -8 -110 -5
-18 -8 26 -8 110 0 84 3 128 8 110 4 -16 8 -66 8 -110z m1001 -97 c-1 -141 -4
-198 -10 -168 -13 76 -7 380 7 380 2 0 3 -96 3 -212z m-3577 170 c-9 -9 -12
-7 -12 12 0 19 3 21 12 12 9 -9 9 -15 0 -24z m72 -711 c5 -498 8 -593 21 -619
13 -28 13 -32 -5 -56 -11 -13 -20 -38 -20 -54 0 -16 -4 -27 -8 -24 -14 8 -24
791 -15 1148 11 464 21 315 27 -395z m-594 693 c0 -5 -4 -10 -10 -10 -5 0 -10
5 -10 10 0 6 5 10 10 10 6 0 10 -4 10 -10z m2428 -685 c7 -508 4 -710 -11
-665 -12 34 -23 691 -18 1055 6 428 19 247 29 -390z m-1223 665 c3 -5 1 -10
-4 -10 -6 0 -11 5 -11 10 0 6 2 10 4 10 3 0 8 -4 11 -10z m-675 -44 c0 -3 -4
-8 -10 -11 -5 -3 -10 -1 -10 4 0 6 5 11 10 11 6 0 10 -2 10 -4z m672 -98 c-19
-19 -32 3 -31 50 l1 47 20 -44 c13 -29 16 -47 10 -53z m-1475 -25 c-3 -10 -5
-2 -5 17 0 19 2 27 5 18 2 -10 2 -26 0 -35z m2072 0 c-1 -42 -2 -44 -9 -21 -7
25 -3 68 6 68 2 0 4 -21 3 -47z m5181 27 c0 -5 -2 -10 -4 -10 -3 0 -8 5 -11
10 -3 6 -1 10 4 10 6 0 11 -4 11 -10z m-550 -76 c0 -8 -4 -12 -10 -9 -5 3 -10
10 -10 16 0 5 5 9 10 9 6 0 10 -7 10 -16z m550 -19 c0 -8 -4 -15 -10 -15 -5 0
-10 7 -10 15 0 8 5 15 10 15 6 0 10 -7 10 -15z m-5770 -9 c0 -3 -4 -8 -10 -11
-5 -3 -10 -1 -10 4 0 6 5 11 10 11 6 0 10 -2 10 -4z m-1206 -411 c6 -262 5
-327 -5 -318 -9 10 -13 103 -15 370 -2 208 0 341 5 318 5 -22 12 -188 15 -370z
m2338 363 c-9 -9 -12 -7 -12 12 0 19 3 21 12 12 9 -9 9 -15 0 -24z m-1078 -60
c8 -73 7 -874 -2 -923 -16 -87 -24 7 -29 330 -6 332 3 645 17 645 4 0 10 -24
14 -52z m-1537 5 c-3 -10 -5 -4 -5 12 0 17 2 24 5 18 2 -7 2 -21 0 -30z m2130
0 c-3 -10 -5 -4 -5 12 0 17 2 24 5 18 2 -7 2 -21 0 -30z m5413 2 c0 -8 -4 -15
-10 -15 -5 0 -10 7 -10 15 0 8 5 15 10 15 6 0 10 -7 10 -15z m-276 -32 c14
-88 4 -333 -14 -333 -12 0 -22 186 -14 281 7 94 17 113 28 52z m-5197 -55 c-2
-18 -4 -6 -4 27 0 33 2 48 4 33 2 -15 2 -42 0 -60z m73 32 c0 -5 -4 -10 -10
-10 -5 0 -10 5 -10 10 0 6 5 10 10 10 6 0 10 -4 10 -10z m-1340 -120 c0 -62
-4 -111 -10 -115 -6 -4 -10 37 -10 115 0 78 4 119 10 115 6 -4 10 -53 10 -115z
m2557 63 c-3 -10 -5 -4 -5 12 0 17 2 24 5 18 2 -7 2 -21 0 -30z m4181 -105
c-4 -133 -12 -174 -29 -147 -12 20 -11 128 2 210 19 113 32 83 27 -63z m-5408
57 c1 -22 1 -76 0 -120 -2 -70 -3 -75 -10 -40 -14 67 -23 192 -15 205 12 19
23 -2 25 -45z m2237 -7 c-2 -13 -4 -5 -4 17 -1 22 1 32 4 23 2 -10 2 -28 0
-40z m2313 22 c0 -5 -2 -10 -4 -10 -3 0 -8 5 -11 10 -3 6 -1 10 4 10 6 0 11
-4 11 -10z m-6683 -122 c-3 -7 -5 -2 -5 12 0 14 2 19 5 13 2 -7 2 -19 0 -25z
m2073 -17 c0 -6 -4 -13 -10 -16 -5 -3 -10 1 -10 9 0 9 5 16 10 16 6 0 10 -4
10 -9z m2303 -411 l-7 -115 -7 70 c-9 100 -10 370 -2 392 13 30 24 -223 16
-347z m-4363 310 c0 -5 -4 -10 -10 -10 -5 0 -10 5 -10 10 0 6 5 10 10 10 6 0
10 -4 10 -10z m3359 -185 c0 -38 -4 -90 -8 -115 -6 -32 -9 1 -9 110 0 107 3
143 9 115 4 -22 8 -71 8 -110z m3877 98 c-10 -10 -19 5 -10 18 6 11 8 11 12 0
2 -7 1 -15 -2 -18z m-3953 -260 c2 -151 -2 -187 -20 -169 -11 10 -17 402 -7
424 13 29 25 -82 27 -255z m4247 246 c0 -5 -4 -9 -10 -9 -5 0 -10 7 -10 16 0
8 5 12 10 9 6 -3 10 -10 10 -16z m-276 -106 c3 -16 9 -114 12 -219 7 -198 1
-275 -18 -256 -15 15 -25 502 -10 502 5 0 12 -12 16 -27z m-5125 -213 c1 -135
-10 -293 -21 -282 -11 11 -12 460 -1 487 10 25 20 -70 22 -205z m-2118 117
c-8 -8 -11 -3 -11 19 1 25 2 27 11 11 8 -14 8 -22 0 -30z m1448 -5 c6 -19 6
-34 0 -37 -18 -12 -29 7 -29 48 0 46 14 41 29 -11z m598 -179 c-1 -43 -3 -8
-3 77 0 85 2 120 3 78 2 -43 2 -113 0 -155z m4627 210 c4 -9 0 -23 -8 -32 -14
-13 -16 -13 -22 2 -7 20 1 47 15 47 5 0 12 -8 15 -17z m-6404 -33 c0 -11 -4
-20 -10 -20 -5 0 -10 9 -10 20 0 11 5 20 10 20 6 0 10 -9 10 -20z m509 -100
c0 -30 -4 -62 -9 -70 -7 -10 -10 13 -9 75 0 59 3 83 9 70 5 -11 9 -45 9 -75z
m6716 40 c3 -5 1 -10 -4 -10 -6 0 -11 5 -11 10 0 6 2 10 4 10 3 0 8 -4 11 -10z
m-838 -62 c-2 -13 -4 -3 -4 22 0 25 2 35 4 23 2 -13 2 -33 0 -45z m-5197 -8
c0 -5 -4 -10 -10 -10 -5 0 -10 5 -10 10 0 6 5 10 10 10 6 0 10 -4 10 -10z
m4010 -48 c-7 -13 -9 -8 -9 23 0 35 1 37 10 17 6 -15 5 -30 -1 -40z m-5460
-40 c0 -15 -5 -34 -10 -42 -7 -11 -10 -2 -10 33 0 30 4 46 10 42 6 -3 10 -18
10 -33z m4340 -75 c-7 -17 -9 -10 -9 28 1 43 2 46 9 22 5 -16 5 -38 0 -50z
m1123 34 c2 -10 1 -25 -4 -32 -6 -10 -9 -4 -9 19 0 36 5 42 13 13z m1187 -16
c0 -8 -4 -15 -10 -15 -5 0 -10 7 -10 15 0 8 5 15 10 15 6 0 10 -7 10 -15z
m-5209 -48 c-8 -8 -11 -3 -11 19 1 25 2 27 11 11 8 -14 8 -22 0 -30z m1816
-66 c-2 -97 -1 -99 29 -137 37 -47 58 -84 50 -91 -3 -3 -14 5 -25 18 -33 41
-44 14 -45 -110 -1 -104 -7 -133 -23 -117 -10 10 -17 403 -8 484 10 95 25 64
22 -47z m-3000 -243 c-1 -62 -3 -12 -3 112 0 124 2 174 3 113 2 -62 2 -164 0
-225z m6390 255 c-3 -10 -5 -2 -5 17 0 19 2 27 5 18 2 -10 2 -26 0 -35z
m-5138 -295 c1 -271 -5 -334 -27 -281 -10 25 -8 551 3 588 l8 30 7 -25 c5 -14
8 -154 9 -312z m4481 310 c0 -16 -3 -19 -11 -11 -6 6 -8 16 -5 22 11 17 16 13
16 -11z m-5990 -76 c0 -15 -5 -34 -10 -42 -7 -11 -10 -2 -10 33 0 30 4 46 10
42 6 -3 10 -18 10 -33z m1445 19 c3 -5 1 -12 -5 -16 -5 -3 -10 1 -10 9 0 18 6
21 15 7z m595 -26 c0 -8 -4 -15 -10 -15 -5 0 -10 7 -10 15 0 8 5 15 10 15 6 0
10 -7 10 -15z m2303 -236 c7 -260 -3 -607 -14 -484 -10 106 -10 715 -1 715 5
0 12 -104 15 -231z m-1016 184 c-3 -10 -5 -4 -5 12 0 17 2 24 5 18 2 -7 2 -21
0 -30z m-2558 -98 c0 -38 -4 -79 -9 -90 -5 -13 -9 20 -9 90 0 70 4 103 9 90 5
-11 9 -51 9 -90z m58 -7 c-2 -18 -4 -4 -4 32 0 36 2 50 4 33 2 -18 2 -48 0
-65z m616 -59 c-8 -8 -14 -6 -22 9 -6 10 -7 22 -4 26 4 4 14 0 22 -9 11 -11
12 -18 4 -26z m594 -156 c-2 -38 -3 -7 -3 67 0 74 1 105 3 68 2 -38 2 -98 0
-135z m3428 188 c3 -5 1 -12 -5 -16 -5 -3 -10 1 -10 9 0 18 6 21 15 7z m1182
-258 c-1 -49 -3 -9 -3 87 0 96 2 136 3 88 2 -49 2 -127 0 -175z m-6647 177 c0
-33 -4 -60 -10 -60 -6 0 -10 27 -10 60 0 33 4 60 10 60 6 0 10 -27 10 -60z
m2590 -21 c0 -10 -4 -19 -10 -19 -5 0 -10 12 -10 26 0 14 4 23 10 19 6 -3 10
-15 10 -26z m741 -57 c-8 -23 -9 -17 -9 33 0 55 1 57 9 27 7 -22 7 -43 0 -60z
m-741 -22 c0 -5 -4 -10 -10 -10 -5 0 -10 5 -10 10 0 6 5 10 10 10 6 0 10 -4
10 -10z m4680 -90 c0 -26 -15 -33 -30 -15 -10 12 -10 18 0 30 15 18 30 11 30
-15z m-3943 -62 c-2 -13 -4 -5 -4 17 -1 22 1 32 4 23 2 -10 2 -28 0 -40z
m-727 13 c14 -35 5 -58 -16 -40 -15 12 -20 69 -5 69 5 0 14 -13 21 -29z
m-2600 -26 c0 -13 -4 -27 -10 -30 -6 -4 -10 8 -10 30 0 22 4 34 10 30 6 -3 10
-17 10 -30z m6737 -52 c-2 -16 -4 -3 -4 27 0 30 2 43 4 28 2 -16 2 -40 0 -55z
m-5287 26 c0 -5 -4 -9 -10 -9 -5 0 -10 7 -10 16 0 8 5 12 10 9 6 -3 10 -10 10
-16z m5820 -14 c0 -8 -4 -17 -10 -20 -6 -4 -10 5 -10 20 0 15 4 24 10 20 6 -3
10 -12 10 -20z m-7008 -222 c-3 -62 -9 -110 -13 -107 -11 6 -12 258 -2 305 7
31 8 29 14 -26 3 -33 3 -111 1 -172z m1248 162 c0 -25 -2 -45 -5 -45 -11 0
-25 53 -20 71 11 34 25 20 25 -26z m1098 12 c2 -12 -3 -17 -17 -17 -12 0 -21
6 -21 13 0 31 32 34 38 4z m720 -304 c-3 -76 -4 -83 -12 -50 -5 21 -5 97 0
175 9 134 9 135 12 50 1 -49 1 -127 0 -175z m-1291 104 c-2 -23 -3 -1 -3 48 0
50 1 68 3 42 2 -26 2 -67 0 -90z m-2046 80 c-8 -8 -11 -3 -11 19 1 25 2 27 11
11 8 -14 8 -22 0 -30z m6749 12 c0 -10 -4 -19 -10 -19 -5 0 -10 12 -10 26 0
14 4 23 10 19 6 -3 10 -15 10 -26z m-4130 11 c0 -5 -4 -10 -10 -10 -5 0 -10 5
-10 10 0 6 5 10 10 10 6 0 10 -4 10 -10z m4040 -15 c0 -8 -4 -15 -10 -15 -5 0
-10 7 -10 15 0 8 5 15 10 15 6 0 10 -7 10 -15z m-664 -52 c-10 -10 -19 5 -10
18 6 11 8 11 12 0 2 -7 1 -15 -2 -18z m83 -306 c6 -126 11 -296 11 -377 0
-135 -7 -179 -25 -150 -11 18 -27 610 -19 720 10 148 20 91 33 -193z m-3469
201 c0 -56 -11 -75 -24 -42 -8 21 -8 109 1 117 13 14 23 -19 23 -75z m-1151
-40 c-1 -74 -4 -103 -9 -83 -14 56 -10 195 6 195 2 0 3 -51 3 -112z m-1449 52
c0 -10 -4 -22 -10 -25 -6 -4 -10 7 -10 25 0 18 4 29 10 25 6 -3 10 -15 10 -25z
m7237 -107 c-3 -10 -5 -4 -5 12 0 17 2 24 5 18 2 -7 2 -21 0 -30z m-2900 -10
c-3 -10 -5 -4 -5 12 0 17 2 24 5 18 2 -7 2 -21 0 -30z m-4345 -35 c-10 -22
-11 -21 -11 12 -1 26 2 31 11 22 8 -8 8 -17 0 -34z m2045 -135 c-2 -21 -4 -4
-4 37 0 41 2 58 4 38 2 -21 2 -55 0 -75z m1292 71 c-9 -11 -15 -12 -25 -3 -11
9 -12 15 -3 25 9 11 15 12 25 3 11 -9 12 -15 3 -25z m-721 -60 c4 -46 -15
-117 -28 -109 -11 7 -13 97 -4 133 10 35 29 21 32 -24z m4662 -19 c0 -24 -5
-35 -15 -35 -15 0 -20 26 -9 54 11 28 24 17 24 -19z m-2922 -65 c0 -25 -3 -56
-7 -70 -17 -63 -32 60 -15 132 7 32 8 32 15 8 4 -14 7 -45 7 -70z m-1021 43
c-3 -10 -5 -4 -5 12 0 17 2 24 5 18 2 -7 2 -21 0 -30z m-3327 -33 c0 -5 -4
-10 -10 -10 -5 0 -10 5 -10 10 0 6 5 10 10 10 6 0 10 -4 10 -10z m5467 -88 c6
-45 -3 -96 -16 -88 -10 7 -22 113 -14 133 9 23 24 0 30 -45z m-2136 -54 c-8
-18 -10 -12 -9 32 0 50 1 52 9 23 6 -19 5 -40 0 -55z m-3331 58 c0 -3 -4 -8
-10 -11 -5 -3 -10 -1 -10 4 0 6 5 11 10 11 6 0 10 -2 10 -4z m1450 -76 c0 -27
-4 -52 -10 -55 -6 -4 -10 17 -10 55 0 38 4 59 10 55 6 -3 10 -28 10 -55z m590
24 c0 -21 -4 -33 -10 -29 -5 3 -10 19 -10 36 0 16 5 29 10 29 6 0 10 -16 10
-36z m5490 -9 c0 -8 -4 -15 -10 -15 -5 0 -10 7 -10 15 0 8 5 15 10 15 6 0 10
-7 10 -15z m-7530 -73 c0 -9 -5 -24 -10 -32 -7 -11 -10 -5 -10 23 0 23 4 36
10 32 6 -3 10 -14 10 -23z m3338 -387 c-1 -93 -3 -204 -7 -245 l-6 -75 -8 124
c-9 161 -9 489 1 532 10 47 20 -116 20 -336z m999 118 c-3 -10 -5 -2 -5 17 0
19 2 27 5 18 2 -10 2 -26 0 -35z m2190 9 c28 -16 -59 -23 -460 -36 -207 -6
-379 -15 -383 -19 -4 -4 136 -7 312 -8 175 -1 360 -4 409 -8 87 -6 88 -6 40
-13 -117 -17 -1798 -44 -1961 -32 l-109 9 95 6 c52 4 237 7 410 8 313 2 496
12 528 30 15 8 15 10 2 15 -8 3 -244 7 -525 9 -490 2 -583 8 -465 30 57 10
1371 26 1783 22 169 -2 315 -8 324 -13z m-2182 -161 c3 -5 1 -12 -5 -16 -5 -3
-10 1 -10 9 0 18 6 21 15 7z m2894 -205 c9 -10 8 -15 -3 -19 -16 -6 -40 16
-29 26 10 11 19 8 32 -7z m355 -105 c3 -4 -5 -18 -18 -30 -34 -32 -155 -39
-831 -46 -324 -3 -705 -10 -845 -16 -140 -5 -691 -12 -1224 -15 -534 -2 -972
-7 -975 -10 -11 -11 25 -23 89 -30 77 -8 1598 3 2215 16 706 15 1527 24 1567
16 40 -7 68 -43 68 -86 0 -19 -2 -19 -42 7 l-42 28 -245 -2 c-135 -1 -514 -6
-841 -12 -327 -6 -1376 -15 -2330 -21 -2800 -17 -4286 -29 -4304 -36 -25 -9
-20 7 23 73 l39 60 83 7 c141 11 1992 25 3484 26 2205 1 4017 31 4082 69 22
13 40 14 47 2z m-7474 -259 c0 -12 -23 -32 -37 -32 -7 0 -13 9 -13 20 0 15 7
20 25 20 14 0 25 -4 25 -8z m3280 -2 c0 -5 -2 -10 -4 -10 -3 0 -8 5 -11 10 -3
6 -1 10 4 10 6 0 11 -4 11 -10z m1670 0 c0 -5 -2 -10 -4 -10 -3 0 -8 5 -11 10
-3 6 -1 10 4 10 6 0 11 -4 11 -10z m2554 -24 l56 -25 2 -381 c2 -210 1 -383
-2 -384 -3 -2 -58 1 -123 5 -129 8 -151 17 -162 69 -12 55 -72 90 -154 90 -33
0 -63 8 -97 27 -58 31 -63 31 -764 14 -234 -6 -794 -15 -1245 -21 -451 -6
-1016 -15 -1255 -21 -239 -6 -1096 -15 -1905 -20 -808 -5 -1489 -11 -1513 -15
-31 -4 -48 -14 -62 -34 -15 -21 -34 -31 -70 -39 -62 -13 -118 -41 -163 -80
-43 -39 -111 -55 -196 -48 -83 7 -117 22 -126 56 -9 36 -19 662 -11 705 6 32
9 35 54 40 26 4 1404 13 3062 21 1658 8 3224 17 3480 20 571 7 1035 22 1075
34 47 14 60 13 119 -13z"/>
<path d="M7721 12264 c-26 -33 -28 -92 -5 -137 21 -40 31 -47 72 -47 43 0 69
28 77 83 13 84 -15 127 -81 127 -34 0 -47 -5 -63 -26z m74 -99 c11 -19 17 -37
14 -39 -11 -12 -49 27 -49 50 0 34 14 30 35 -11z"/>
<path d="M3405 11980 c-3 -5 1 -10 10 -10 9 0 13 5 10 10 -3 6 -8 10 -10 10
-2 0 -7 -4 -10 -10z"/>
<path d="M3693 12143 c-35 -7 -27 -30 16 -52 31 -16 41 -28 48 -58 8 -35 12
-38 46 -41 44 -4 45 1 15 71 -35 85 -50 95 -125 80z"/>
<path d="M5044 12056 c-4 -9 -1 -29 7 -44 l13 -27 4 34 c4 38 -13 65 -24 37z"/>
<path d="M5144 12056 c-9 -22 -1 -48 18 -59 23 -15 48 8 48 44 0 26 -4 29 -30
29 -17 0 -33 -6 -36 -14z"/>
<path d="M5475 12131 c-9 -16 3 -31 26 -31 14 0 19 6 17 17 -4 20 -33 29 -43
14z"/>
<path d="M4417 12141 c-8 -30 9 -48 22 -23 15 28 14 42 -3 42 -7 0 -16 -9 -19
-19z"/>
<path d="M4052 12124 c-30 -21 -31 -90 -1 -128 41 -52 71 -26 40 34 -24 46
-11 54 32 20 33 -26 37 -25 37 6 0 27 -49 84 -72 84 -7 0 -24 -7 -36 -16z"/>
<path d="M1411 12104 c-20 -14 -51 -69 -51 -90 0 -3 12 2 27 12 15 9 41 20 58
24 34 7 43 30 20 54 -20 20 -25 20 -54 0z"/>
<path d="M1670 12110 c0 -5 5 -10 10 -10 6 0 10 5 10 10 0 6 -4 10 -10 10 -5
0 -10 -4 -10 -10z"/>
<path d="M1763 12084 c-7 -19 11 -39 26 -30 16 10 13 33 -4 40 -9 3 -18 -1
-22 -10z"/>
<path d="M2983 12063 c-18 -7 -16 -28 3 -44 8 -7 13 -21 10 -31 -3 -14 0 -18
12 -16 21 4 56 64 48 83 -5 14 -47 19 -73 8z"/>
<path d="M5025 11817 l-40 -22 45 -3 c33 -3 47 1 57 14 13 18 9 34 -10 34 -7
-1 -30 -11 -52 -23z"/>
<path d="M494 11755 c-5 -13 2 -26 25 -47 37 -33 74 -34 79 -3 4 31 -19 55
-60 62 -30 4 -39 2 -44 -12z"/>
<path d="M243 11533 c9 -2 23 -2 30 0 6 3 -1 5 -18 5 -16 0 -22 -2 -12 -5z"/>
<path d="M318 11533 c6 -2 18 -2 25 0 6 3 1 5 -13 5 -14 0 -19 -2 -12 -5z"/>
<path d="M1831 11777 c-15 -19 10 -53 33 -44 23 9 32 37 15 48 -20 12 -35 11
-48 -4z"/>
<path d="M2055 11780 c-7 -11 12 -50 24 -50 5 0 14 7 21 15 10 12 10 18 0 30
-14 17 -36 20 -45 5z"/>
<path d="M2517 11783 c-3 -5 -2 -15 3 -22 10 -17 43 -6 38 12 -6 15 -34 22
-41 10z"/>
<path d="M3222 11773 c2 -10 14 -19 26 -21 19 -3 23 1 20 15 -2 10 -14 19 -26
21 -19 3 -23 -1 -20 -15z"/>
<path d="M3285 11450 c-3 -5 1 -10 10 -10 9 0 13 5 10 10 -3 6 -8 10 -10 10
-2 0 -7 -4 -10 -10z"/>
<path d="M5110 11111 c-7 -15 -7 -21 0 -21 12 0 25 28 17 36 -3 3 -10 -4 -17
-15z"/>
<path d="M610 11010 c-12 -8 -9 -10 13 -10 16 0 26 4 22 10 -8 12 -16 12 -35
0z"/>
<path d="M4189 10823 c-12 -13 -14 -188 -16 -1038 -1 -769 -4 -1028 -13 -1045
-7 -14 -9 -34 -4 -54 4 -17 6 -75 6 -129 -2 -74 1 -98 10 -95 7 3 16 19 20 36
8 28 11 31 28 22 17 -9 21 -6 27 17 11 38 10 2172 0 2246 -7 45 -12 57 -26 57
-10 0 -25 -7 -32 -17z"/>
<path d="M4078 10804 c-21 -34 -19 -220 2 -255 18 -28 25 7 22 113 -3 105 -13
162 -24 142z"/>
<path d="M431 10641 c-14 -9 -9 -41 7 -41 15 0 34 28 27 40 -8 12 -16 13 -34
1z"/>
<path d="M575 10610 c3 -5 8 -10 11 -10 2 0 4 5 4 10 0 6 -5 10 -11 10 -5 0
-7 -4 -4 -10z"/>
<path d="M460 10570 c-12 -8 -9 -10 13 -10 16 0 26 4 22 10 -8 12 -16 12 -35
0z"/>
<path d="M445 10496 c-25 -7 -41 -19 -43 -30 -4 -17 1 -18 49 -12 30 3 87 9
127 13 39 3 72 10 72 14 0 29 -128 39 -205 15z"/>
<path d="M4081 10438 c-11 -29 6 -68 20 -47 12 19 11 69 -1 69 -6 0 -14 -10
-19 -22z"/>
<path d="M570 10300 c0 -11 5 -20 10 -20 6 0 10 9 10 20 0 11 -4 20 -10 20 -5
0 -10 -9 -10 -20z"/>
<path d="M4092 10215 c0 -16 2 -22 5 -12 2 9 2 23 0 30 -3 6 -5 -1 -5 -18z"/>
<path d="M5936 10184 c-3 -26 -6 -162 -7 -303 0 -141 -4 -277 -8 -302 -6 -39
-5 -48 11 -58 24 -15 23 -56 -3 -97 l-20 -33 20 -20 c29 -29 29 -108 1 -144
-41 -52 -19 -145 42 -178 l21 -11 -8 513 c-8 549 -14 670 -31 676 -7 2 -14
-16 -18 -43z"/>
<path d="M2427 10153 c-9 -8 -9 -88 0 -96 12 -12 33 15 33 43 0 48 -15 72 -33
53z"/>
<path d="M2337 10055 c-9 -101 -7 -441 3 -480 6 -27 8 -28 16 -10 12 27 10
514 -3 544 -8 21 -11 11 -16 -54z"/>
<path d="M4677 10103 c-9 -8 -8 -113 1 -173 6 -36 11 -46 29 -48 35 -5 56 37
57 118 0 79 -16 112 -34 66 -5 -15 -10 -42 -10 -61 0 -19 -4 -37 -10 -40 -6
-4 -10 17 -10 57 0 62 -10 95 -23 81z"/>
<path d="M5130 10044 c-95 -12 -141 -26 -154 -47 -23 -37 -27 -257 -16 -877
11 -687 17 -810 37 -810 22 0 27 -29 8 -50 -17 -19 -17 -20 9 -30 15 -5 36
-10 48 -10 18 0 19 4 14 43 -4 23 -9 95 -12 160 l-6 117 25 0 c14 0 28 3 30 8
9 14 -13 54 -33 59 -22 6 -27 31 -34 206 -5 113 -5 117 15 117 32 0 59 19 59
40 0 24 13 26 30 5 14 -17 50 -20 50 -5 0 19 -27 75 -44 92 -22 23 -43 13 -65
-31 -11 -20 -28 -44 -39 -54 -20 -18 -21 -18 -32 2 -6 12 -10 47 -8 79 3 50 6
57 26 60 14 2 22 10 22 24 0 30 74 100 102 96 38 -5 53 -51 56 -173 l3 -110
-40 -54 c-44 -59 -51 -77 -23 -65 9 4 34 9 55 12 35 4 37 2 43 -28 4 -19 16
-36 30 -42 13 -6 25 -17 28 -24 6 -15 -17 -36 -35 -32 -11 2 -13 -16 -11 -90
4 -86 2 -94 -14 -90 -28 5 -62 64 -69 116 -8 62 -22 95 -36 86 -17 -10 -5
-118 31 -264 35 -146 36 -159 13 -167 -49 -17 -69 -67 -38 -93 16 -13 178 -10
192 4 4 4 -3 16 -17 26 l-25 20 47 0 c26 0 59 5 75 11 l28 11 -24 19 c-17 14
-39 19 -83 19 -53 0 -63 3 -89 30 -23 22 -28 35 -23 54 4 18 0 33 -14 51 -24
30 -19 55 9 55 23 0 39 -36 39 -89 0 -20 6 -46 14 -56 13 -18 14 -18 24 1 5
10 15 45 22 77 8 42 21 70 46 97 24 27 34 47 34 71 1 19 7 45 15 59 18 31 18
70 1 93 -19 25 -23 22 -36 -33 -11 -47 -34 -80 -46 -67 -3 3 1 27 10 54 31 95
49 203 36 218 -22 27 -45 18 -47 -19 -2 -19 -7 -44 -12 -57 l-9 -24 -12 27
c-10 22 -10 32 4 59 20 41 21 39 -9 39 -28 0 -32 12 -10 30 19 16 19 29 0 50
-8 9 -18 30 -21 48 -6 28 -3 33 29 52 42 25 60 67 78 180 17 111 31 140 68
140 20 0 34 -7 41 -20 7 -13 15 -159 20 -383 10 -351 14 -417 30 -417 10 0 20
168 20 347 0 84 4 154 9 158 6 3 12 -14 14 -37 2 -24 4 29 4 117 0 88 -2 150
-4 138 -2 -13 -9 -23 -14 -23 -5 0 -9 49 -9 110 0 61 2 110 5 110 3 0 9 -10
14 -22 13 -34 23 136 19 311 l-3 145 -80 18 c-78 18 -309 31 -385 22z m0 -79
c-20 -24 11 -30 183 -35 165 -5 208 -16 133 -34 -24 -5 -62 -32 -110 -77 -76
-71 -113 -88 -102 -47 4 17 -3 30 -26 52 l-32 29 24 19 24 19 -60 -3 -59 -3
-6 -65 c-6 -72 -3 -79 43 -94 18 -6 34 -18 36 -26 5 -28 -24 -54 -59 -55 l-34
0 -14 -118 c-17 -140 -9 -165 34 -96 23 36 29 40 37 26 10 -19 58 -23 58 -5 0
7 -12 29 -26 50 -32 45 -24 63 11 27 26 -25 55 -120 55 -176 0 -41 -20 -51
-64 -34 -17 7 -58 23 -91 35 l-60 21 -3 58 c-2 41 2 66 13 83 15 23 15 26 -4
50 -19 24 -19 27 -3 69 15 41 15 47 -1 80 -22 47 -21 78 3 100 20 18 37 95 25
115 -12 19 -25 -9 -25 -52 0 -21 -4 -38 -9 -38 -15 0 -32 56 -29 96 3 36 6 39
38 44 19 3 52 3 73 1 30 -2 35 -6 27 -16z m439 -174 l-2 -146 -13 75 c-7 41
-13 116 -13 165 0 81 1 88 14 71 12 -16 15 -51 14 -165z m-85 53 c13 -33 20
-324 8 -324 -18 0 -33 38 -30 73 3 30 1 32 -31 35 -38 4 -54 -11 -46 -45 7
-30 -11 -73 -31 -73 -12 0 -15 6 -10 24 7 28 -2 40 -21 25 -17 -15 -17 -53 1
-88 13 -25 13 -31 0 -50 -9 -12 -20 -19 -25 -16 -12 8 -12 174 1 249 14 89 33
98 24 11 -4 -38 -4 -68 -1 -65 3 3 26 52 52 110 25 58 53 115 61 128 17 26 39
29 48 6z m-310 -67 c8 -13 8 -20 -3 -27 -21 -12 -51 6 -51 31 0 26 37 23 54
-4z m76 -135 c0 -37 -22 -67 -44 -59 -22 9 -20 29 5 61 26 34 39 33 39 -2z
m-175 -387 c0 -25 -4 -31 -27 -33 -31 -4 -34 4 -16 43 16 35 43 29 43 -10z
m285 -639 c0 -3 -4 -8 -10 -11 -5 -3 -10 -1 -10 4 0 6 5 11 10 11 6 0 10 -2
10 -4z m-357 -141 c4 -8 2 -17 -3 -20 -6 -4 -10 3 -10 14 0 25 6 27 13 6z"/>
<path d="M5410 9710 c0 -5 7 -10 15 -10 8 0 15 5 15 10 0 6 -7 10 -15 10 -8 0
-15 -4 -15 -10z"/>
<path d="M6290 10043 c-88 -15 -50 -29 112 -40 l123 -8 -135 -6 c-171 -8 -193
-17 -154 -60 15 -17 15 -21 -4 -51 -16 -26 -23 -63 -32 -162 -22 -275 -7 -689
27 -747 14 -23 15 -33 5 -54 -17 -36 -15 -45 8 -45 26 0 40 53 40 155 0 91 16
203 32 222 19 23 28 2 22 -51 -5 -38 -1 -68 10 -103 14 -43 15 -61 6 -119 -14
-86 -8 -107 34 -133 34 -21 46 -39 46 -67 0 -18 -46 -19 -57 -1 -4 8 -21 20
-38 28 -18 9 -31 23 -33 37 -6 37 -36 23 -43 -20 -3 -20 -18 -51 -34 -69 -26
-32 -27 -37 -22 -105 4 -39 11 -82 16 -95 8 -22 10 -22 16 -6 12 28 25 1 24
-48 0 -37 -17 -96 -18 -67 -1 6 -5 12 -11 12 -6 0 -10 -53 -10 -140 l0 -140
243 0 c133 0 258 5 278 10 61 17 74 40 78 144 6 153 -31 1710 -41 1721 -9 10
-438 17 -488 8z m457 -73 c7 -14 13 -49 13 -78 0 -45 -3 -55 -20 -59 -18 -5
-18 -7 -3 -30 14 -21 14 -33 4 -91 -19 -105 -16 -306 5 -341 15 -26 16 -41 5
-149 -6 -66 -11 -141 -11 -166 0 -39 -4 -49 -30 -68 -48 -35 -40 -52 23 -48
29 2 36 -17 15 -38 -9 -9 -14 -67 -18 -182 -5 -155 -12 -205 -24 -169 -3 8 -6
25 -8 39 -4 32 -39 37 -114 15 -31 -9 -63 -14 -70 -11 -14 6 -19 52 -8 81 6
14 8 13 21 -5 17 -24 63 -28 63 -5 0 9 11 20 25 25 27 10 65 64 65 93 0 29
-38 20 -76 -18 -58 -58 -64 -50 -76 89 -9 115 -1 219 16 213 7 -3 11 -38 11
-98 l0 -94 59 -3 58 -3 -21 35 c-27 43 -31 114 -7 131 10 8 16 27 16 52 0 27
6 46 20 58 30 27 23 60 -12 60 -37 -1 -35 14 7 55 40 39 42 48 18 66 -16 11
-18 35 -19 228 -1 118 -5 232 -8 251 -8 42 -70 115 -97 115 -25 0 -24 -19 7
-79 32 -65 57 -183 51 -240 -6 -51 -26 -71 -71 -71 l-29 0 20 23 c54 58 69
139 27 145 -33 5 -51 -21 -63 -89 -17 -100 -57 -143 -93 -100 -10 13 -18 36
-18 52 0 31 9 36 28 17 15 -15 37 3 50 42 11 30 2 40 -36 40 -8 0 -26 9 -38
21 l-22 21 -12 -22 c-6 -12 -14 -81 -17 -153 -2 -73 -9 -146 -14 -164 -6 -17
-29 -49 -52 -70 -35 -32 -42 -35 -45 -19 -2 10 8 30 21 44 14 15 31 40 36 55
14 37 14 94 0 103 -11 6 -8 55 8 143 5 32 5 34 -21 29 -22 -5 -26 -3 -20 11 4
9 10 42 13 73 8 74 23 89 54 60 28 -26 54 -28 59 -4 2 9 -3 43 -10 75 -9 37
-11 62 -5 68 5 5 74 12 154 16 79 3 155 10 169 15 25 9 25 10 5 25 -19 14 -19
14 5 11 14 -2 30 -14 37 -28z m-412 -60 c9 -14 -13 -50 -31 -50 -8 0 -17 7
-20 15 -11 29 35 61 51 35z m-75 -191 c0 -5 -4 -9 -10 -9 -5 0 -10 7 -10 16 0
8 5 12 10 9 6 -3 10 -10 10 -16z m0 -229 c0 -5 -4 -10 -10 -10 -5 0 -10 5 -10
10 0 6 5 10 10 10 6 0 10 -4 10 -10z m0 -40 c0 -5 -4 -10 -10 -10 -5 0 -10 5
-10 10 0 6 5 10 10 10 6 0 10 -4 10 -10z m324 0 c34 -13 34 -49 0 -89 -34 -40
-71 -42 -80 -3 -10 45 -13 52 -24 52 -18 0 -32 -52 -33 -122 0 -65 -8 -85 -21
-52 -3 9 -6 63 -6 120 l0 104 69 0 c38 0 81 -4 95 -10z m-6 -182 c16 -16 15
-80 -2 -104 -14 -18 -15 -18 -25 9 -6 16 -11 34 -11 41 0 8 -10 20 -22 28 -12
8 -18 19 -14 26 9 16 59 15 74 0z m-122 -133 c3 -19 3 -43 -1 -52 -7 -17 -8
-16 -15 2 -12 28 -12 85 0 85 5 0 12 -16 16 -35z m324 -97 c0 -18 -2 -20 -9
-8 -6 8 -7 18 -5 22 9 14 14 9 14 -14z m-353 -36 c34 -21 40 -132 8 -132 -11
0 -15 11 -15 38 0 28 -7 45 -25 62 -14 13 -25 27 -25 32 0 10 41 10 57 0z
m350 -209 c-3 -10 -5 -4 -5 12 0 17 2 24 5 18 2 -7 2 -21 0 -30z m-437 -53 c0
-5 -7 -10 -15 -10 -8 0 -15 5 -15 10 0 6 7 10 15 10 8 0 15 -4 15 -10z m437
-92 c-2 -13 -4 -3 -4 22 0 25 2 35 4 23 2 -13 2 -33 0 -45z m-457 32 c0 -5 -5
-10 -11 -10 -5 0 -7 5 -4 10 3 6 8 10 11 10 2 0 4 -4 4 -10z m118 -15 c16 -35
15 -80 -3 -95 -22 -19 -35 -3 -35 45 0 74 17 96 38 50z m-121 -102 c-3 -10 -5
-2 -5 17 0 19 2 27 5 18 2 -10 2 -26 0 -35z m333 17 c0 -11 -6 -20 -14 -20
-18 0 -29 16 -21 30 11 18 35 11 35 -10z m-300 -74 c0 -3 -4 -8 -10 -11 -5 -3
-10 -1 -10 4 0 6 5 11 10 11 6 0 10 -2 10 -4z m307 -23 c24 -10 45 -25 49 -33
14 -35 23 -134 13 -152 -14 -27 -33 -22 -46 13 -13 34 -33 31 -33 -6 0 -14 -7
-26 -17 -29 -10 -2 -93 -7 -185 -11 -148 -6 -169 -5 -174 9 -4 9 5 28 20 47
16 19 26 43 26 63 0 33 18 57 54 70 28 10 44 -10 56 -69 13 -61 38 -88 82 -88
52 0 88 65 88 161 0 48 5 50 67 25z m120 -90 c-2 -21 -4 -4 -4 37 0 41 2 58 4
38 2 -21 2 -55 0 -75z m-247 8 c-17 -42 -30 -39 -30 7 0 46 9 58 28 38 13 -12
13 -20 2 -45z m234 -147 c9 -3 16 -10 16 -14 0 -22 -132 -41 -145 -21 -9 15
20 26 107 40 3 1 13 -2 22 -5z m-336 -61 c-21 -2 -57 -2 -80 0 -24 2 -7 4 37
4 44 0 63 -2 43 -4z"/>
<path d="M6700 9910 c0 -5 5 -10 10 -10 6 0 10 5 10 10 0 6 -4 10 -10 10 -5 0
-10 -4 -10 -10z"/>
<path d="M6450 9891 c-5 -11 -10 -56 -10 -100 0 -76 1 -81 21 -81 35 0 89 62
89 102 0 71 -73 129 -100 79z m58 -73 c14 -14 16 -28 2 -28 -5 0 -14 9 -20 20
-12 22 -1 27 18 8z"/>
<path d="M6350 8386 c0 -9 5 -16 10 -16 6 0 10 4 10 9 0 6 -4 13 -10 16 -5 3
-10 -1 -10 -9z"/>
<path d="M595 10020 c-3 -5 -1 -10 4 -10 6 0 11 5 11 10 0 6 -2 10 -4 10 -3 0
-8 -4 -11 -10z"/>
<path d="M1700 10008 c-102 -5 -187 -12 -190 -16 -8 -10 6 -803 19 -1119 6
-141 11 -365 11 -497 0 -133 4 -247 9 -255 7 -11 56 -13 282 -9 156 3 285 10
300 16 23 9 27 18 33 69 13 106 -23 1753 -39 1794 -12 31 -83 34 -425 17z
m393 -143 c6 -120 2 -181 -13 -190 -4 -2 -10 48 -13 112 -5 82 -11 123 -23
141 -16 24 -18 24 -103 19 -47 -4 -117 -11 -156 -16 -38 -6 -105 -10 -147 -11
l-78 0 -1 -72 c-1 -40 -5 -100 -9 -133 -6 -45 -8 -24 -6 83 2 109 6 146 16
152 20 12 289 34 466 39 l61 1 6 -125z m-336 27 c6 -4 11 -28 11 -55 -1 -30 5
-53 15 -65 25 -27 21 -31 -18 -25 -31 5 -35 3 -35 -16 0 -30 27 -91 51 -117
24 -25 22 -57 -3 -62 -24 -5 -55 34 -67 86 -19 78 -32 102 -54 102 -17 0 -19
-5 -15 -45 3 -25 2 -48 -3 -50 -18 -11 -31 41 -36 146 l-6 109 74 0 c41 0 79
-4 86 -8z m264 -2 c17 -10 19 -23 20 -128 0 -64 4 -137 8 -162 6 -39 8 -42 15
-22 19 57 53 -17 42 -92 -7 -46 -28 -62 -40 -31 -3 8 -14 15 -25 15 -24 0 -51
36 -51 67 0 14 -6 23 -15 23 -23 0 -18 40 10 85 28 46 31 68 10 85 -13 10 -15
9 -15 -12 0 -36 -9 -39 -40 -16 -15 11 -36 18 -46 16 -27 -5 -29 -36 -6 -59
21 -19 21 -19 1 -86 -10 -37 -19 -72 -19 -76 0 -5 18 -6 40 -2 33 6 40 4 40
-10 0 -9 -13 -21 -29 -26 -17 -6 -39 -26 -50 -45 -27 -45 -46 -35 -24 11 16
34 16 36 -6 59 -22 23 -22 25 -6 57 18 33 17 54 -4 179 -5 30 -10 83 -10 118
l-1 62 91 0 c50 0 99 -5 110 -10z m-350 -336 c18 -22 18 -110 -1 -129 -25 -24
-52 2 -53 51 -2 81 22 116 54 78z m-116 -14 c3 -5 1 -10 -4 -10 -6 0 -11 5
-11 10 0 6 2 10 4 10 3 0 8 -4 11 -10z m195 -51 c-6 -10 -17 -19 -25 -19 -19
0 -19 9 1 31 21 23 38 14 24 -12z m22 -104 c-16 -35 -32 -31 -32 8 0 42 9 52
29 33 12 -12 12 -20 3 -41z m-212 15 c0 -10 -4 -22 -10 -25 -6 -4 -10 7 -10
25 0 18 4 29 10 25 6 -3 10 -15 10 -25z m480 -14 c0 -7 11 -23 25 -36 34 -32
33 -78 -1 -115 -25 -27 -26 -33 -21 -99 4 -49 12 -78 27 -96 41 -51 46 -68 22
-91 -20 -18 -22 -30 -22 -132 -1 -176 -17 -217 -86 -217 -17 0 -37 -6 -43 -13
-13 -16 -5 -27 19 -27 9 0 21 -5 28 -12 14 -14 -2 -38 -27 -38 -9 -1 -32 -14
-51 -30 -45 -39 -69 -41 -45 -4 13 21 16 43 13 103 -2 62 0 76 12 76 8 0 16
10 18 23 3 17 -2 22 -17 22 -14 0 -21 6 -21 19 0 29 -11 51 -25 51 -20 0 -25
-25 -25 -136 0 -59 -4 -104 -10 -104 -14 0 -30 69 -30 135 0 82 -19 224 -33
255 -7 14 -21 26 -31 28 -17 4 -18 -1 -13 -32 5 -32 3 -38 -24 -51 -26 -14
-29 -20 -29 -64 0 -52 10 -67 50 -73 24 -3 25 -6 25 -68 l0 -65 -35 0 c-32 0
-35 -3 -40 -35 -7 -49 -30 -45 -60 12 -18 34 -22 52 -15 61 54 74 50 48 48
362 -3 293 2 365 24 372 7 3 27 -21 44 -53 30 -53 34 -56 42 -36 21 47 47 9
47 -70 0 -29 4 -80 10 -112 5 -33 7 -62 4 -65 -12 -12 -44 47 -55 102 -10 47
-17 60 -36 68 -61 23 -68 -3 -27 -91 14 -30 29 -71 33 -90 6 -32 11 -35 46
-40 l40 -5 5 -65 c6 -75 13 -90 44 -90 28 0 46 -18 46 -47 0 -33 14 -28 55 20
30 34 35 47 31 71 -5 22 -1 36 16 54 23 23 23 24 4 38 -19 14 -19 15 2 53 21
37 21 40 6 85 -11 33 -14 63 -10 99 3 29 9 84 12 122 3 39 7 76 10 83 5 16 24
6 24 -12z m-96 -173 c1 -86 -13 -106 -68 -96 -43 8 -46 13 -53 76 -8 77 3 122
40 164 l32 36 24 -53 c17 -39 24 -72 25 -127z m166 -73 c0 -5 -4 -10 -10 -10
-5 0 -10 5 -10 10 0 6 5 10 10 10 6 0 10 -4 10 -10z m-540 -24 c0 -16 -18 -31
-27 -22 -8 8 5 36 17 36 5 0 10 -6 10 -14z m374 -60 c9 -14 6 -22 -17 -42 -15
-13 -35 -24 -43 -24 -21 0 -17 47 7 71 23 23 37 21 53 -5z m-34 -162 c0 -31
-23 -28 -28 4 -2 15 2 22 12 22 11 0 16 -9 16 -26z m208 -74 c-13 -20 -28 -27
-28 -12 0 10 22 32 32 32 5 0 3 -9 -4 -20z m-408 -30 c0 -5 -4 -10 -10 -10 -5
0 -10 5 -10 10 0 6 5 10 10 10 6 0 10 -4 10 -10z m13 -367 c2 -77 1 -82 -25
-103 -19 -15 -28 -31 -28 -51 0 -37 -15 -43 -66 -27 -45 15 -50 33 -14 51 14
7 30 28 37 49 6 20 23 47 37 61 22 22 26 35 26 80 0 29 3 57 7 61 13 13 25
-39 26 -121z m343 28 c3 -11 10 -9 27 8 13 11 26 21 30 21 4 0 7 -22 7 -50 0
-49 -16 -100 -31 -100 -5 0 -20 -18 -33 -39 -21 -33 -33 -41 -76 -50 -70 -15
-115 -14 -129 3 -14 16 -4 43 23 66 9 7 16 24 16 39 0 26 19 55 53 81 17 13
18 11 15 -25 -2 -30 1 -40 14 -43 26 -5 48 39 61 120 11 69 12 71 15 28 1 -25
5 -51 8 -59z m-446 9 c0 -5 -5 -10 -11 -10 -5 0 -7 5 -4 10 3 6 8 10 11 10 2
0 4 -4 4 -10z m146 -179 c15 -29 8 -51 -17 -51 -23 0 -42 34 -34 61 9 26 36
21 51 -10z m364 -12 c0 -5 -4 -9 -10 -9 -5 0 -10 7 -10 16 0 8 5 12 10 9 6 -3
10 -10 10 -16z m-26 -88 c7 -10 -113 -21 -243 -22 -53 0 -118 -5 -146 -10 -86
-17 -100 -16 -100 6 0 18 9 21 75 26 124 9 408 10 414 0z"/>
<path d="M1657 9843 c-11 -10 -8 -41 4 -49 14 -8 53 31 45 45 -8 12 -39 15
-49 4z"/>
<path d="M1956 9861 c-8 -12 21 -34 34 -26 8 5 8 11 -1 21 -13 16 -25 18 -33
5z"/>
<path d="M1870 9794 c0 -31 23 -28 28 4 2 15 -2 22 -12 22 -11 0 -16 -9 -16
-26z"/>
<path d="M1657 9014 c-14 -15 -6 -34 14 -34 14 0 19 5 17 17 -3 18 -20 27 -31
17z"/>
<path d="M1982 8718 c-13 -13 -16 -51 -5 -61 11 -12 33 14 33 39 0 28 -13 37
-28 22z"/>
<path d="M1961 8326 c-10 -12 -8 -17 8 -25 23 -13 51 -5 51 14 0 12 -21 25
-40 25 -4 0 -13 -6 -19 -14z"/>
<path d="M2423 9974 c-7 -19 11 -39 26 -30 16 10 13 33 -4 40 -9 3 -18 -1 -22
-10z"/>
<path d="M4110 9980 c0 -5 5 -10 11 -10 5 0 7 5 4 10 -3 6 -8 10 -11 10 -2 0
-4 -4 -4 -10z"/>
<path d="M5832 9830 c0 -106 0 -112 11 -70 10 36 17 46 36 48 l24 4 -27 21
c-17 15 -29 37 -35 67 -7 37 -9 23 -9 -70z"/>
<path d="M4090 9910 c0 -5 5 -10 11 -10 5 0 7 5 4 10 -3 6 -8 10 -11 10 -2 0
-4 -4 -4 -10z"/>
<path d="M572 9888 c-16 -16 -15 -28 3 -28 8 0 15 9 15 20 0 23 -2 24 -18 8z"/>
<path d="M500 9835 c-10 -12 -10 -18 0 -30 15 -18 30 -11 30 15 0 26 -15 33
-30 15z"/>
<path d="M4745 9840 c4 -6 11 -8 16 -5 14 9 11 15 -7 15 -8 0 -12 -5 -9 -10z"/>
<path d="M4085 9755 c-12 -63 -13 -1427 -1 -1960 6 -291 11 -384 19 -365 12
28 10 1908 -2 2205 -6 149 -8 164 -16 120z"/>
<path d="M4700 9765 c0 -8 5 -15 10 -15 6 0 10 7 10 15 0 8 -4 15 -10 15 -5 0
-10 -7 -10 -15z"/>
<path d="M570 9750 c0 -11 5 -20 10 -20 6 0 10 9 10 20 0 11 -4 20 -10 20 -5
0 -10 -9 -10 -20z"/>
<path d="M4741 9706 c-14 -17 -32 -184 -24 -216 16 -59 51 32 55 141 3 72 -9
102 -31 75z"/>
<path d="M2424 9666 c-9 -22 0 -69 13 -73 15 -5 27 38 18 66 -7 24 -23 27 -31
7z"/>
<path d="M438 9583 c-45 -12 -7 -36 75 -48 37 -6 53 -3 74 10 l26 18 -24 13
c-23 13 -114 17 -151 7z"/>
<path d="M5827 9540 c-9 -32 -7 -277 2 -310 7 -24 7 -24 14 9 9 42 8 209 -2
276 -5 42 -8 46 -14 25z"/>
<path d="M4729 9417 c-12 -27 -1 -78 18 -84 14 -5 23 33 16 69 -8 39 -21 44
-34 15z"/>
<path d="M5430 9401 c0 -5 6 -14 14 -20 16 -13 32 2 21 19 -8 12 -35 13 -35 1z"/>
<path d="M2345 9381 c-7 -13 6 -121 15 -121 12 0 20 28 20 65 0 54 -18 83 -35
56z"/>
<path d="M5440 9281 c-15 -29 -12 -78 5 -85 31 -12 56 43 39 88 -8 22 -31 20
-44 -3z"/>
<path d="M4725 9240 c-7 -23 1 -40 20 -40 16 0 23 18 17 43 -6 23 -29 22 -37
-3z"/>
<path d="M5360 9129 c-9 -15 -18 -19 -35 -15 -42 11 -35 -9 20 -64 30 -30 55
-60 55 -67 0 -17 35 -34 54 -27 16 6 21 18 32 77 7 44 -3 47 -47 15 -29 -22
-31 -22 -44 -5 -9 12 -10 29 -4 54 12 54 -9 75 -31 32z"/>
<path d="M4732 9112 c-26 -35 -28 -55 -7 -72 23 -19 19 -77 -5 -90 -26 -14
-27 -50 0 -50 10 0 24 8 29 19 15 27 24 172 14 200 l-10 24 -21 -31z"/>
<path d="M5847 8971 c-8 -75 -8 -569 2 -755 4 -98 9 -131 20 -134 12 -4 13 45
6 334 -4 187 -10 402 -14 479 -6 129 -7 135 -14 76z"/>
<path d="M2350 8933 c0 -55 10 -65 61 -61 39 3 44 6 44 28 0 18 -6 25 -20 26
-27 1 -65 22 -65 34 0 6 -4 10 -10 10 -5 0 -10 -17 -10 -37z"/>
<path d="M5424 8885 c-19 -29 -11 -44 14 -29 19 12 29 54 13 54 -6 0 -18 -11
-27 -25z"/>
<path d="M5587 8893 c-10 -9 -8 -86 2 -102 15 -24 31 -2 31 43 0 41 -19 74
-33 59z"/>
<path d="M5910 8880 c0 -5 5 -10 11 -10 5 0 7 5 4 10 -3 6 -8 10 -11 10 -2 0
-4 -4 -4 -10z"/>
<path d="M2344 8683 c-4 -54 -7 -236 -8 -404 -1 -247 2 -309 13 -323 19 -22
37 -6 45 42 5 36 -8 500 -20 690 -3 50 -10 92 -14 92 -4 0 -11 -44 -16 -97z"/>
<path d="M5594 8685 c-9 -23 3 -146 16 -159 7 -7 10 18 10 76 0 82 -12 120
-26 83z"/>
<path d="M5470 8664 c0 -8 5 -12 10 -9 6 3 10 10 10 16 0 5 -4 9 -10 9 -5 0
-10 -7 -10 -16z"/>
<path d="M5470 8556 c0 -39 10 -45 31 -20 9 11 10 20 3 32 -20 30 -34 25 -34
-12z"/>
<path d="M5386 8515 c-15 -39 27 -85 79 -85 53 0 65 -15 65 -81 0 -51 -4 -64
-26 -86 -24 -24 -24 -26 -8 -44 9 -11 14 -22 11 -26 -4 -3 -112 -9 -241 -12
-172 -4 -238 -9 -248 -19 -29 -29 13 -33 242 -27 272 7 347 13 366 32 10 10
14 40 14 106 l-1 92 -21 -47 c-11 -27 -24 -48 -29 -48 -5 0 -10 42 -10 93 -2
104 -9 149 -26 154 -6 2 -14 -10 -18 -26 -9 -40 -14 -42 -60 -28 -27 8 -41 20
-49 39 -11 31 -31 37 -40 13z"/>
<path d="M5600 8466 c0 -24 16 -43 27 -32 8 8 -6 56 -17 56 -6 0 -10 -11 -10
-24z"/>
<path d="M5112 8429 c-7 -28 -10 -55 -6 -60 7 -12 41 -11 49 2 8 11 -13 97
-25 104 -4 2 -12 -19 -18 -46z"/>
<path d="M4214 8438 c-5 -7 -11 -146 -15 -309 -8 -290 -17 -373 -42 -382 -9
-3 -9 -14 1 -53 28 -104 40 -926 22 -1499 -9 -283 -17 -355 -35 -324 -5 8 -13
145 -17 304 -12 416 -19 530 -30 481 -11 -51 -6 -2475 6 -2498 4 -10 12 -15
17 -12 5 3 7 294 3 712 -5 521 -4 736 5 817 12 106 33 167 51 149 5 -5 10
-168 12 -362 3 -374 3 -371 50 -372 12 0 18 12 23 43 8 57 -12 3255 -20 3290
-8 29 -19 35 -31 15z"/>
<path d="M4744 8335 c-8 -20 9 -88 22 -92 16 -5 22 35 12 75 -9 34 -25 42 -34
17z"/>
<path d="M2443 8325 c-3 -9 -3 -18 0 -21 9 -9 27 6 27 22 0 19 -19 18 -27 -1z"/>
<path d="M1190 8004 c0 -8 5 -12 10 -9 6 4 8 11 5 16 -9 14 -15 11 -15 -7z"/>
<path d="M2295 7549 c-213 -28 -563 -116 -701 -177 -49 -22 -106 -45 -126 -51
-37 -12 -66 -37 -55 -47 3 -4 41 8 84 26 320 134 832 226 1138 206 252 -18
575 -108 793 -222 79 -41 142 -56 142 -34 0 20 -275 145 -453 206 -224 77
-386 104 -602 103 -82 -1 -181 -6 -220 -10z"/>
<path d="M2705 7450 c-3 -5 -1 -10 4 -10 6 0 11 5 11 10 0 6 -2 10 -4 10 -3 0
-8 -4 -11 -10z"/>
<path d="M6780 7406 c66 -29 130 -43 130 -28 0 12 -84 40 -145 48 l-40 5 55
-25z"/>
<path d="M1950 7400 c0 -5 6 -10 14 -10 8 0 18 5 21 10 3 6 -3 10 -14 10 -12
0 -21 -4 -21 -10z"/>
<path d="M4090 7140 c0 -5 5 -10 11 -10 5 0 7 5 4 10 -3 6 -8 10 -11 10 -2 0
-4 -4 -4 -10z"/>
<path d="M4096 7059 c-5 -27 10 -219 19 -227 10 -10 16 92 10 169 -7 91 -18
113 -29 58z"/>
<path d="M770 6550 c0 -5 5 -10 11 -10 5 0 7 5 4 10 -3 6 -8 10 -11 10 -2 0
-4 -4 -4 -10z"/>
<path d="M595 6351 c-12 -55 17 -100 31 -47 8 32 2 69 -13 73 -6 2 -14 -10
-18 -26z"/>
<path d="M4356 6269 l-26 -20 0 -179 c0 -98 -5 -213 -11 -256 -12 -90 -7 -117
28 -150 48 -44 113 -32 186 35 53 48 58 70 36 141 -13 42 -23 117 -30 220 -10
167 -13 186 -37 213 -23 25 -111 23 -146 -4z m118 -120 c11 -55 7 -199 -5
-199 -23 0 -81 43 -90 67 -12 31 -12 160 0 148 5 -6 16 -33 25 -61 9 -28 23
-60 31 -70 13 -17 14 -10 15 64 0 83 12 109 24 51z m-6 -279 c39 -18 42 -22
42 -57 0 -44 -23 -83 -49 -83 -9 0 -22 -5 -28 -11 -28 -28 -73 36 -73 103 0
68 32 83 108 48z"/>
<path d="M4460 5820 c0 -5 5 -10 10 -10 6 0 10 5 10 10 0 6 -4 10 -10 10 -5 0
-10 -4 -10 -10z"/>
<path d="M4205 5033 c-20 -4 -20 -12 -20 -791 0 -640 -3 -791 -13 -811 -28
-49 -35 -6 -43 260 -4 143 -10 263 -12 265 -15 15 -19 -476 -13 -1451 6 -1063
10 -1275 27 -1275 12 0 31 67 30 113 0 23 -5 227 -10 452 -12 470 -13 1530 -2
1559 37 96 58 -321 67 -1339 4 -390 10 -728 13 -750 5 -34 10 -40 33 -43 23
-3 29 2 34 25 4 15 2 568 -4 1228 -7 660 -12 1507 -12 1883 l0 682 -27 -1
c-16 -1 -37 -4 -48 -6z"/>
<path d="M2550 3260 c0 -25 4 -39 10 -35 6 3 10 19 10 35 0 16 -4 32 -10 35
-6 4 -10 -10 -10 -35z"/>
<path d="M2550 3030 c0 -5 5 -10 10 -10 6 0 10 5 10 10 0 6 -4 10 -10 10 -5 0
-10 -4 -10 -10z"/>
<path d="M2553 2785 c-3 -9 -3 -18 0 -21 9 -9 27 6 27 22 0 19 -19 18 -27 -1z"/>
<path d="M2552 2588 c2 -12 11 -24 21 -26 14 -3 18 1 15 20 -2 12 -11 24 -21
26 -14 3 -18 -1 -15 -20z"/>
<path d="M2562 2415 c6 -14 15 -25 20 -25 11 0 10 7 -2 31 -16 28 -32 23 -18
-6z"/>
<path d="M2583 2145 c0 -33 2 -45 4 -27 2 18 2 45 0 60 -2 15 -4 0 -4 -33z"/>
<path d="M2570 1821 c0 -12 5 -21 10 -21 6 0 10 6 10 14 0 8 -4 18 -10 21 -5
3 -10 -3 -10 -14z"/>
<path d="M1430 1710 c-13 -9 -13 -11 0 -20 29 -19 150 -2 150 20 0 13 -131 13
-150 0z"/>
<path d="M1210 1480 c0 -76 12 -90 30 -35 9 26 9 44 0 70 -18 55 -30 41 -30
-35z"/>
<path d="M7101 10417 c-102 -36 -84 -157 23 -157 55 0 68 15 74 87 4 46 2 59
-14 70 -21 16 -38 16 -83 0z m64 -41 c20 -29 7 -68 -30 -92 -24 -16 -27 -16
-43 -1 -19 20 -21 79 -3 101 20 24 58 20 76 -8z"/>
<path d="M7120 10330 c0 -5 5 -10 11 -10 5 0 7 5 4 10 -3 6 -8 10 -11 10 -2 0
-4 -4 -4 -10z"/>
<path d="M3676 10391 c-3 -5 6 -25 20 -46 27 -41 26 -65 -4 -65 -22 0 -38 16
-43 44 -6 30 -27 30 -40 2 -26 -57 46 -114 108 -84 24 11 28 20 31 60 3 40 -1
52 -22 73 -26 26 -41 31 -50 16z"/>
<path d="M4620 10375 c-19 -20 -22 -31 -17 -71 6 -59 25 -74 93 -74 62 0 84
21 84 81 0 77 -107 120 -160 64z m109 -41 c17 -14 31 -34 31 -45 0 -23 -41
-41 -84 -37 -36 4 -52 40 -37 81 14 35 49 35 90 1z"/>
<path d="M1221 10341 c-11 -7 -5 -14 25 -28 26 -12 40 -26 42 -41 4 -28 -21
-29 -65 -2 l-33 20 0 -34 c0 -74 58 -87 114 -26 43 47 44 63 11 95 -25 26 -68
32 -94 16z"/>
<path d="M2866 10019 c-44 -5 -84 -13 -90 -19 -21 -21 -24 -171 -15 -710 8
-521 13 -620 29 -620 11 0 18 104 26 349 6 194 8 210 21 180 18 -43 34 -27 44
43 9 69 48 170 62 165 20 -6 77 -110 77 -139 0 -35 -14 -36 -36 -3 -22 33 -54
42 -71 19 -28 -38 -9 -114 27 -114 25 0 26 -27 4 -59 -14 -20 -22 -22 -54 -17
-30 5 -39 2 -45 -12 -13 -28 -18 -587 -7 -720 11 -136 22 -163 74 -179 l33
-10 -50 -7 c-27 -4 -61 -12 -75 -18 l-25 -11 30 -8 c40 -9 226 -10 426 -3
l164 7 -3 256 c-4 396 -19 951 -26 958 -3 4 -12 1 -19 -6 -8 -8 -12 -45 -12
-109 l0 -97 -32 2 -31 3 14 -29 c11 -21 12 -36 4 -55 -11 -30 -35 -36 -25 -6
4 13 -1 30 -14 46 -27 35 -26 66 3 101 16 19 26 48 32 93 9 62 11 65 42 76 19
6 38 17 43 25 13 20 12 595 -1 620 -10 18 -23 19 -228 18 -119 -1 -253 -5
-296 -10z m474 -291 c0 -237 -1 -255 -20 -283 -12 -16 -28 -45 -37 -63 -22
-46 -70 -80 -118 -84 -36 -3 -40 -5 -37 -28 7 -59 7 -65 -8 -65 -12 0 -15 13
-14 60 1 46 10 81 38 147 48 110 55 116 100 89 41 -25 54 -14 36 29 -23 56
-68 48 -132 -23 l-36 -42 -22 20 c-22 20 -22 20 -36 0 -11 -14 -13 -34 -9 -70
l6 -50 -26 29 c-23 25 -26 35 -21 70 17 111 17 121 -3 154 -29 45 -53 41 -81
-11 -29 -55 -23 -75 19 -69 26 4 31 1 31 -17 0 -11 -11 -28 -24 -36 -14 -9
-34 -35 -45 -58 l-21 -42 0 35 c0 19 -5 42 -10 50 -15 25 -31 -2 -38 -66 -5
-51 -7 -55 -13 -29 -10 43 -11 205 -1 205 4 0 14 -6 21 -12 10 -11 12 -4 9 32
-2 38 -7 47 -30 58 -16 7 -28 18 -28 23 0 22 22 49 39 49 39 0 31 71 -9 80
-38 9 -35 28 10 69 l43 39 -32 16 c-17 9 -31 19 -31 22 0 17 73 23 288 23
l242 1 0 -252z m-140 -548 c0 -5 -7 -10 -15 -10 -8 0 -15 5 -15 10 0 6 7 10
15 10 8 0 15 -4 15 -10z m-10 -117 c-1 -69 -36 -166 -63 -171 -26 -5 -47 55
-47 137 0 93 27 111 35 25 6 -64 45 -73 45 -11 0 18 3 42 6 55 11 41 24 22 24
-35z m-165 6 c4 -6 -13 -29 -38 -52 -24 -23 -47 -50 -50 -59 -7 -20 41 -223
79 -336 23 -70 24 -77 9 -108 -8 -18 -15 -59 -15 -96 0 -69 -28 -142 -63 -162
-49 -29 -61 82 -55 470 5 255 9 294 32 294 6 0 26 14 44 30 36 32 47 36 57 19z
m334 -131 c-1 -62 -2 -68 -10 -38 -7 31 -2 110 7 110 2 0 4 -33 3 -72z m-304
-68 c20 -44 26 -48 45 -25 7 8 16 15 21 15 17 0 9 -31 -16 -64 -14 -18 -25
-42 -25 -53 0 -23 34 -58 73 -72 31 -12 36 -41 8 -48 -12 -3 -17 -11 -14 -19
3 -7 -4 -45 -16 -83 -12 -38 -21 -82 -21 -97 0 -28 0 -28 20 -9 10 11 36 51
57 89 21 38 44 71 50 74 20 6 29 -29 10 -40 -26 -14 -20 -42 18 -88 36 -44 55
-93 55 -148 0 -25 8 -42 31 -63 18 -16 29 -33 25 -37 -22 -21 -376 -22 -376
-1 0 5 6 9 13 9 56 0 244 24 254 32 9 7 10 15 2 30 -17 32 -67 56 -136 63
l-65 7 6 56 c15 152 18 252 7 252 -6 0 -11 -5 -11 -11 0 -5 -4 -7 -10 -4 -5 3
-10 22 -10 42 0 19 -9 73 -20 120 -29 117 -14 160 25 73z m200 28 c33 -15 32
-22 -9 -46 -19 -11 -47 -42 -62 -69 -34 -59 -33 -58 -39 -51 -12 11 63 178 79
178 3 0 17 -5 31 -12z m-5 -117 c0 -6 -4 -13 -10 -16 -5 -3 -10 1 -10 9 0 9 5
16 10 16 6 0 10 -4 10 -9z m66 -77 l7 -27 15 29 16 29 7 -25 c14 -51 10 -70
-17 -81 -36 -13 -63 -3 -70 27 -7 27 9 74 26 74 5 0 13 -12 16 -26z m44 -139
c0 -8 -4 -17 -10 -20 -6 -4 -10 5 -10 20 0 15 4 24 10 20 6 -3 10 -12 10 -20z
m20 -195 c0 -5 -4 -10 -10 -10 -5 0 -10 5 -10 10 0 6 5 10 10 10 6 0 10 -4 10
-10z m20 -101 c0 -23 -28 -25 -36 -4 -4 8 -3 22 0 31 5 13 9 14 21 4 8 -7 15
-21 15 -31z m-235 1 c0 -11 -13 -16 -49 -18 -27 -2 -56 0 -65 3 -13 5 -12 9 9
21 33 18 105 14 105 -6z"/>
<path d="M2916 9909 c-11 -54 -7 -207 5 -186 14 23 65 22 87 -3 9 -11 28 -52
42 -92 28 -83 44 -91 75 -38 11 19 49 63 85 97 35 35 60 63 55 64 -6 1 -22 0
-37 -1 -15 -1 -32 2 -38 5 -15 9 7 35 30 35 10 0 20 7 24 15 8 23 -5 76 -21
82 -23 9 -40 -16 -70 -101 -33 -93 -53 -109 -53 -43 0 77 -19 150 -45 176 -32
32 -40 23 -19 -22 12 -25 15 -46 9 -73 l-7 -39 -15 30 c-20 40 -63 85 -81 85
-9 0 -13 7 -9 20 3 11 2 20 -3 20 -4 0 -10 -14 -14 -31z"/>
<path d="M3223 9644 c-9 -23 11 -38 26 -20 13 16 7 36 -10 36 -5 0 -12 -7 -16
-16z"/>
<path d="M3196 9427 c-16 -12 -16 -14 -2 -26 18 -15 56 -6 56 14 0 7 -7 16
-16 19 -20 8 -17 8 -38 -7z"/>
<path d="M3160 9360 c0 -5 5 -10 10 -10 6 0 10 5 10 10 0 6 -4 10 -10 10 -5 0
-10 -4 -10 -10z"/>
<path d="M2920 8755 c0 -8 5 -15 10 -15 6 0 10 7 10 15 0 8 -4 15 -10 15 -5 0
-10 -7 -10 -15z"/>
<path d="M2930 8645 c-13 -34 -13 -77 1 -112 10 -27 11 -27 24 -9 19 25 30
105 18 125 -16 25 -32 24 -43 -4z"/>
<path d="M2920 8335 c0 -8 5 -15 10 -15 6 0 10 7 10 15 0 8 -4 15 -10 15 -5 0
-10 -7 -10 -15z"/>
<path d="M3195 8410 c3 -5 10 -10 16 -10 5 0 9 5 9 10 0 6 -7 10 -16 10 -8 0
-12 -4 -9 -10z"/>
<path d="M2777 8613 c-4 -3 -7 -19 -7 -35 0 -35 27 -38 36 -4 8 35 -10 59 -29
39z"/>
<path d="M2775 8458 c-9 -45 -3 -234 8 -244 17 -17 22 14 21 125 -1 124 -16
188 -29 119z"/>
<path d="M3696 8740 c-14 -107 -12 -405 3 -396 15 10 34 204 29 305 -6 114
-23 162 -32 91z"/>
<path d="M1217 6283 c-4 -3 -7 -43 -7 -87 1 -99 19 -83 22 18 2 65 -2 82 -15
69z"/>
<path d="M5363 7423 c9 -2 25 -2 35 0 9 3 1 5 -18 5 -19 0 -27 -2 -17 -5z"/>
<path d="M5930 7293 c0 -77 13 -112 24 -68 9 34 -3 135 -15 135 -5 0 -9 -30
-9 -67z"/>
<path d="M5381 7094 c-1 -258 -9 -319 -48 -353 l-27 -23 -9 23 c-14 36 -1 245
18 282 10 20 12 33 5 37 -16 10 -30 69 -30 125 0 53 -12 86 -24 66 -14 -22
-18 -430 -7 -616 16 -254 25 -296 34 -145 6 113 26 201 53 229 7 8 17 11 21 7
11 -10 17 -350 8 -442 -8 -87 -25 -99 -25 -16 0 31 -5 116 -12 187 l-13 130
-8 -140 c-8 -132 -14 -166 -24 -137 -10 26 -23 10 -23 -26 0 -24 7 -48 19 -61
16 -18 21 -45 26 -152 7 -121 15 -154 30 -129 3 5 14 10 24 10 14 0 20 11 25
53 8 74 5 1246 -4 1282 -4 17 -8 -67 -9 -191z m-1 -1014 c0 -16 -4 -30 -10
-30 -5 0 -10 14 -10 30 0 17 5 30 10 30 6 0 10 -13 10 -30z"/>
<path d="M5930 7070 c0 -11 5 -20 10 -20 6 0 10 9 10 20 0 11 -4 20 -10 20 -5
0 -10 -9 -10 -20z"/>
<path d="M5940 6903 c0 -39 10 -73 22 -73 14 0 5 93 -9 98 -9 2 -13 -6 -13
-25z"/>
<path d="M5935 6749 c-4 -30 -2 -182 4 -339 6 -156 11 -299 11 -317 0 -18 5
-33 10 -33 16 0 9 715 -7 731 -8 8 -13 -2 -18 -42z"/>
<path d="M5283 5985 c0 -44 2 -61 4 -37 2 23 2 59 0 80 -2 20 -4 1 -4 -43z"/>
<path d="M5359 5887 c-34 -17 -37 -44 -46 -342 l-8 -260 -29 -28 c-24 -24 -27
-34 -23 -64 9 -54 23 -62 41 -22 l14 34 1 -72 c1 -58 -2 -73 -14 -73 -8 0 -17
-15 -22 -37 -11 -52 -6 -1789 6 -2108 5 -143 14 -273 20 -288 9 -23 7 -33 -10
-57 -24 -32 -20 -80 6 -80 8 0 15 -9 15 -21 0 -12 -4 -18 -11 -13 -16 9 -29
-15 -29 -53 0 -38 14 -43 25 -10 7 19 9 16 12 -17 3 -29 -1 -44 -16 -60 -26
-28 -27 -52 -1 -66 21 -11 28 -54 11 -65 -18 -10 -23 -114 -13 -247 12 -150
16 -168 43 -168 30 0 36 34 28 170 -27 490 -37 2476 -12 2501 19 19 22 -41 31
-684 5 -334 12 -610 16 -614 3 -3 9 -3 13 1 9 9 4 1570 -6 1867 -6 193 -10
229 -24 244 -14 13 -17 36 -17 123 0 73 3 102 10 92 5 -8 10 -35 10 -60 0 -33
3 -41 10 -30 12 18 14 507 2 514 -4 3 -19 -1 -33 -7z m18 -249 c-2 -24 -4 -7
-4 37 0 44 2 63 4 43 2 -21 2 -57 0 -80z m3 -670 c0 -123 -8 -165 -26 -137
-10 15 -9 125 1 207 12 93 25 56 25 -70z m-70 -40 c0 -16 -3 -19 -11 -11 -6 6
-8 16 -5 22 11 17 16 13 16 -11z m-3 -125 c-3 -10 -5 -2 -5 17 0 19 2 27 5 18
2 -10 2 -26 0 -35z m70 -39 c3 -8 1 -25 -4 -37 l-10 -22 -12 23 c-13 25 -9 52
9 52 6 0 13 -7 17 -16z m-67 -24 c0 -5 -2 -10 -4 -10 -3 0 -8 5 -11 10 -3 6
-1 10 4 10 6 0 11 -4 11 -10z m41 -213 c-8 -8 -11 -3 -11 19 1 25 2 27 11 11
8 -14 8 -22 0 -30z m-41 8 c0 -8 -4 -15 -10 -15 -5 0 -10 7 -10 15 0 8 5 15
10 15 6 0 10 -7 10 -15z m0 -145 c0 -5 -2 -10 -4 -10 -3 0 -8 5 -11 10 -3 6
-1 10 4 10 6 0 11 -4 11 -10z m0 -60 c0 -5 -5 -10 -11 -10 -5 0 -7 5 -4 10 3
6 8 10 11 10 2 0 4 -4 4 -10z"/>
<path d="M5270 5811 c0 -6 5 -13 10 -16 6 -3 10 1 10 9 0 9 -4 16 -10 16 -5 0
-10 -4 -10 -9z"/>
<path d="M5262 5598 c5 -32 28 -35 28 -4 0 17 -5 26 -16 26 -10 0 -14 -7 -12
-22z"/>
<path d="M5275 5359 c-4 -12 -2 -26 4 -32 8 -8 11 -2 11 21 0 37 -6 41 -15 11z"/>
<path d="M5910 3894 c0 -8 5 -12 10 -9 6 3 10 10 10 16 0 5 -4 9 -10 9 -5 0
-10 -7 -10 -16z"/>
<path d="M5387 2960 c-15 -262 -4 -801 16 -781 13 13 12 822 -1 866 -7 23 -10
4 -15 -85z"/>
<path d="M5981 2315 c0 -86 3 -105 11 -85 15 37 16 166 1 181 -11 10 -13 -9
-12 -96z"/>
<path d="M5844 2376 c-6 -26 1 -46 16 -46 14 0 31 37 24 54 -9 24 -33 19 -40
-8z"/>
<path d="M6390 2165 c0 -8 5 -15 10 -15 6 0 10 7 10 15 0 8 -4 15 -10 15 -5 0
-10 -7 -10 -15z"/>
<path d="M5396 2076 c-6 -24 7 -112 18 -123 3 -4 6 28 6 70 0 75 -12 101 -24
53z"/>
<path d="M6001 1875 c1 -43 2 -46 10 -24 6 16 6 35 0 50 -8 20 -10 16 -10 -26z"/>
<path d="M5400 1866 c0 -8 5 -18 10 -21 6 -3 10 3 10 14 0 12 -4 21 -10 21 -5
0 -10 -6 -10 -14z"/>
<path d="M5405 1800 c-3 -5 -1 -10 4 -10 6 0 11 5 11 10 0 6 -2 10 -4 10 -3 0
-8 -4 -11 -10z"/>
<path d="M530 1396 c0 -9 5 -16 10 -16 6 0 10 4 10 9 0 6 -4 13 -10 16 -5 3
-10 -1 -10 -9z"/>
<path d="M610 1329 c-7 -27 -9 -53 -6 -56 12 -12 26 13 32 60 9 64 -11 62 -26
-4z"/>
<path d="M1820 1105 c-140 -7 -354 -14 -475 -15 -121 -1 -281 -5 -355 -9
l-135 -6 155 -9 c85 -4 407 -8 715 -7 816 1 1248 12 1228 32 -28 28 -683 36
-1133 14z"/>
<path d="M3142 1111 c-112 -11 -126 -27 -31 -35 252 -19 926 -16 888 4 -45 24
-690 47 -857 31z"/>
<path d="M568 1073 c18 -2 45 -2 60 0 15 2 0 4 -33 4 -33 0 -45 -2 -27 -4z"/>
<path d="M421 12233 c-26 -22 -43 -85 -34 -133 19 -112 92 -144 164 -71 32 32
39 46 39 77 0 48 -29 98 -72 124 -41 25 -69 25 -97 3z m49 -107 c0 -16 -18
-31 -27 -22 -8 8 5 36 17 36 5 0 10 -6 10 -14z m70 4 c0 -5 -7 -10 -16 -10 -8
0 -12 5 -9 10 3 6 10 10 16 10 5 0 9 -4 9 -10z m-40 -70 c0 -5 -2 -10 -4 -10
-3 0 -8 5 -11 10 -3 6 -1 10 4 10 6 0 11 -4 11 -10z"/>
<path d="M7713 10715 c-3 -9 -3 -18 0 -21 9 -9 27 6 27 22 0 19 -19 18 -27 -1z"/>
<path d="M7866 10721 c-4 -7 -5 -15 -2 -18 9 -9 19 4 14 18 -4 11 -6 11 -12 0z"/>
<path d="M7775 10411 c-3 -5 -1 -12 5 -16 5 -3 10 1 10 9 0 18 -6 21 -15 7z"/>
<path d="M7783 10170 c0 -47 2 -66 4 -42 2 23 2 61 0 85 -2 23 -4 4 -4 -43z"/>
<path d="M7866 10171 c-4 -7 -5 -15 -2 -18 9 -9 19 4 14 18 -4 11 -6 11 -12 0z"/>
<path d="M7860 10075 c0 -8 5 -15 10 -15 6 0 10 7 10 15 0 8 -4 15 -10 15 -5
0 -10 -7 -10 -15z"/>
<path d="M7780 9888 c0 -48 15 -71 31 -47 11 17 2 59 -17 79 -12 12 -14 8 -14
-32z"/>
<path d="M7870 9800 c0 -5 7 -10 15 -10 8 0 15 5 15 10 0 6 -7 10 -15 10 -8 0
-15 -4 -15 -10z"/>
<path d="M7755 6249 c-22 -11 -49 -29 -60 -39 -36 -37 -17 -129 37 -180 57
-53 168 14 168 102 0 45 -12 71 -48 111 -30 32 -44 33 -97 6z m86 -49 c37 -20
15 -106 -29 -117 -37 -9 -75 9 -86 40 -13 36 1 58 45 74 43 15 46 15 70 3z"/>
<path d="M7785 6130 c-3 -5 1 -10 9 -10 9 0 16 5 16 10 0 6 -4 10 -9 10 -6 0
-13 -4 -16 -10z"/>
<path d="M7718 3269 c-3 -18 -2 -46 3 -63 5 -25 7 -18 8 32 1 67 -4 81 -11 31z"/>
<path d="M7890 3084 c0 -8 5 -12 10 -9 6 4 8 11 5 16 -9 14 -15 11 -15 -7z"/>
<path d="M7890 2774 c0 -8 5 -12 10 -9 6 4 8 11 5 16 -9 14 -15 11 -15 -7z"/>
<path d="M7893 2645 c0 -27 2 -38 4 -22 2 15 2 37 0 50 -2 12 -4 0 -4 -28z"/>
<path d="M7893 2475 c0 -27 2 -38 4 -22 2 15 2 37 0 50 -2 12 -4 0 -4 -28z"/>
<path d="M7790 1363 c0 -38 10 -73 21 -73 10 0 12 60 3 84 -10 25 -24 18 -24
-11z"/>
<path d="M7893 1350 c0 -25 2 -35 4 -22 2 12 2 32 0 45 -2 12 -4 2 -4 -23z"/>
<path d="M5958 193 c17 -2 47 -2 65 0 17 2 3 4 -33 4 -36 0 -50 -2 -32 -4z"/>
<path d="M3108 103 c6 -2 18 -2 25 0 6 3 1 5 -13 5 -14 0 -19 -2 -12 -5z"/>
</g>
</svg>
